# Rhino

v 2.4008328934758225 0 0
v 2.7009370051603003 0 -1.7397339807795815
v 2.7009370051603003 1.4352805341431547 -1.7397339807795815
v 2.4008328934758225 1.4352805341431547 0
vn 0.98544597625732422 0 0.16998901963233948
vn 0.98544597625732422 0 0.16998901963233948
vn 0.98544597625732422 0 0.16998901963233948
vn 0.98544597625732422 0 0.16998901963233948
f 1//1 2//2 3//3 4//4
v 0 1.4352805341431547 0
v 0 1.4352805341431547 -2.2181608254939662
v 0 0 -2.2181608254939662
v 0 0 0
vn -1 0 0
vn -1 0 0
vn -1 0 0
vn -1 0 0
f 5//5 6//6 7//7 8//8
v 2.4008328934758225 1.4352805341431547 0
v 0 1.4352805341431547 0
v 0 0 0
v 2.4008328934758225 0 0
vn 0 0 1
vn 0 0 1
vn 0 0 1
vn 0 0 1
f 9//9 10//10 11//11 12//12
v 0 1.4352805341431547 -2.2181608254939662
v 2.7009370051603003 1.4352805341431547 -1.7397339807795815
v 2.7009370051603003 0 -1.7397339807795815
v 0 0 -2.2181608254939662
vn 0.17441794276237488 0 -0.98467171192169189
vn 0.17441794276237488 0 -0.98467171192169189
vn 0.17441794276237488 0 -0.98467171192169189
vn 0.17441794276237488 0 -0.98467171192169189
f 13//13 14//14 15//15 16//16
v 0 1.4352805341431547 -2.2181608254939662
v 2.7009370051603003 1.4352805341431547 -1.7397339807795815
v 0 1.4352805341431547 0
v 2.4008328934758225 1.4352805341431547 0
vn 0 1 0
vn 0 1 0
vn 0 1 0
vn 0 1 0
f 19//19 20//20 18//18 17//17
v 0 0 -2.2181608254939662
v 2.7009370051603003 0 -1.7397339807795815
v 2.4008328934758225 0 0
v 0 0 0
vn 0 -1 0
vn 0 -1 0
vn 0 -1 0
vn 0 -1 0
f 21//21 22//22 23//23 24//24
