# Rhino

g Layer0
v 0.021372745876412937 0.070076842451674282 0.18866313997529929
v 0.059456661820210373 0.070076842451674323 0.20745779949508736
v 0.031767601440910335 0.070076842451674309 0.18189866683727202
v 0.053544060446561549 0.070076842451674295 0.21835973804005193
v 0.095981671215694855 0.070076842451674295 0.21672478474208623
v 0.1384192819848282 0.070076842451674295 0.21835973804005174
v 0.095981671215694828 0.070076842451674295 0.22912684582248144
v 0.1325066806111794 0.070076842451674337 0.20745779949508728
v 0.17059059655497671 0.070076842451674309 0.18866313997529921
v 0.16019574099047934 0.070076842451674309 0.18189866683727199
v 0.053544060446561549 0.02562684245167432 0.21835973804005182
v 0.021372745876412937 0.070076842451674282 0.18866313997529929
v 0.021372745876412937 0.025626842451674296 0.18866313997529924
v 0.053544060446561549 0.070076842451674295 0.21835973804005193
v 0.182286624634376 0.062520342451674316 0.14800539904321058
v 0.17477671779701359 0.033183342451674293 0.14544623152135719
v 0.17477671779701359 0.062520342451674316 0.14544623152135722
v 0.182286624634376 0.033183342451674293 0.14800539904321058
v 0.1325066806111794 0.070076842451674337 0.20745779949508728
v 0.095981671215694855 0.025626842451674302 0.2167247847420864
v 0.095981671215694855 0.070076842451674295 0.21672478474208623
v 0.1325066806111794 0.025626842451674278 0.20745779949508736
v 0.1384192819848282 0.025626842451674309 0.21835973804005182
v 0.095981671215694828 0.070076842451674295 0.22912684582248144
v 0.095981671215694828 0.025626842451674309 0.22912684582248152
v 0.1384192819848282 0.070076842451674295 0.21835973804005174
v 0.095981671215694855 0.070076842451674295 0.21672478474208623
v 0.059456661820210373 0.025626842451674282 0.20745779949508744
v 0.059456661820210373 0.070076842451674323 0.20745779949508736
v 0.095981671215694855 0.025626842451674302 0.2167247847420864
v 0.031767601440910335 0.070076842451674309 0.18189866683727202
v 0.017186624634376067 0.062520342451674316 0.14544623152135738
v 0.0096767177970136474 0.062520342451674316 0.14800539904321061
v 0.182286624634376 0.033183342451674293 0.14800539904321058
v 0.17059059655497671 0.070076842451674309 0.18866313997529921
v 0.17059059655497671 0.025626842451674302 0.18866313997529915
v 0.182286624634376 0.062520342451674316 0.14800539904321058
v 0.031767601440910335 0.025626842451674299 0.18189866683727199
v 0.0096767177970136474 0.033183342451674279 0.14800539904321061
v 0.017186624634376067 0.033183342451674293 0.14544623152135722
v 0.021372745876412937 0.070076842451674282 0.18866313997529929
v 0.031767601440910335 0.070076842451674309 0.18189866683727202
v 0.0096767177970136474 0.062520342451674316 0.14800539904321061
v 0.17059059655497671 0.025626842451674302 0.18866313997529915
v 0.1384192819848282 0.070076842451674295 0.21835973804005174
v 0.1384192819848282 0.025626842451674309 0.21835973804005182
v 0.17059059655497671 0.070076842451674309 0.18866313997529921
v 0.059456661820210373 0.070076842451674323 0.20745779949508736
v 0.031767601440910335 0.025626842451674299 0.18189866683727199
v 0.031767601440910335 0.070076842451674309 0.18189866683727202
v 0.059456661820210373 0.025626842451674282 0.20745779949508744
v 0.017186624634376067 0.033183342451674293 0.14544623152135722
v 0.031767601440910335 0.070076842451674309 0.18189866683727202
v 0.031767601440910335 0.025626842451674299 0.18189866683727199
v 0.017186624634376067 0.062520342451674316 0.14544623152135738
v 0.16019574099047934 0.070076842451674309 0.18189866683727199
v 0.17477671779701359 0.033183342451674293 0.14544623152135719
v 0.16019574099047934 0.025626842451674302 0.18189866683727193
v 0.17477671779701359 0.062520342451674316 0.14544623152135722
v 0.021372745876412937 0.070076842451674282 0.18866313997529929
v 0.0096767177970136474 0.033183342451674279 0.14800539904321061
v 0.021372745876412937 0.025626842451674296 0.18866313997529924
v 0.0096767177970136474 0.062520342451674316 0.14800539904321061
v 0.021372745876412937 0.025626842451674296 0.18866313997529924
v 0.0096767177970136474 0.033183342451674279 0.14800539904321061
v 0.031767601440910335 0.025626842451674299 0.18189866683727199
v 0.16019574099047934 0.070076842451674309 0.18189866683727199
v 0.1325066806111794 0.025626842451674278 0.20745779949508736
v 0.1325066806111794 0.070076842451674337 0.20745779949508728
v 0.16019574099047934 0.025626842451674302 0.18189866683727193
v 0.16019574099047934 0.070076842451674309 0.18189866683727199
v 0.182286624634376 0.062520342451674316 0.14800539904321058
v 0.17477671779701359 0.062520342451674316 0.14544623152135722
v 0.095981671215694828 0.025626842451674309 0.22912684582248152
v 0.053544060446561549 0.070076842451674295 0.21835973804005193
v 0.053544060446561549 0.02562684245167432 0.21835973804005182
v 0.095981671215694828 0.070076842451674295 0.22912684582248144
v 0.17059059655497671 0.070076842451674309 0.18866313997529921
v 0.182286624634376 0.062520342451674316 0.14800539904321058
v 0.16019574099047934 0.070076842451674309 0.18189866683727199
v 0.16019574099047934 0.025626842451674302 0.18189866683727193
v 0.17477671779701359 0.033183342451674293 0.14544623152135719
v 0.182286624634376 0.033183342451674293 0.14800539904321058
v 0.17059059655497671 0.025626842451674302 0.18866313997529915
v 0.1325066806111794 0.025626842451674278 0.20745779949508736
v 0.16019574099047934 0.025626842451674302 0.18189866683727193
v 0.1384192819848282 0.025626842451674309 0.21835973804005182
v 0.095981671215694855 0.025626842451674302 0.2167247847420864
v 0.059456661820210373 0.025626842451674282 0.20745779949508744
v 0.021372745876412937 0.025626842451674296 0.18866313997529924
v 0.031767601440910335 0.025626842451674299 0.18189866683727199
v 0.053544060446561549 0.02562684245167432 0.21835973804005182
v 0.095981671215694828 0.025626842451674309 0.22912684582248152
v 0.17059059655497671 0.025626842451674302 0.18866313997529915
v 0.16019574099047934 0.025626842451674302 0.18189866683727193
v 0.182286624634376 0.033183342451674293 0.14800539904321058
v 0.017186624634376067 0.062520342451674316 0.14544623152135738
v 0.0096767177970136474 0.033183342451674279 0.14800539904321061
v 0.0096767177970136474 0.062520342451674316 0.14800539904321061
v 0.017186624634376067 0.033183342451674293 0.14544623152135722
vn -0.049443591386079788 0.99588274955749512 -0.075979165732860565
vn 0 1 0
vn -0.047387141734361649 0.9958692193031311 -0.077452652156352997
vn 0 1 0
vn 0 1 0
vn 0 1 0
vn 0 1 0
vn 0 1 0
vn 0.049443591386079788 0.99588274955749512 -0.075979165732860565
vn 0.047387141734361649 0.9958692193031311 -0.077452652156352997
vn -0.47674345970153809 0 0.87904244661331177
vn -0.84221994876861572 0 0.53913408517837524
vn -0.84221994876861572 0 0.53913408517837524
vn -0.47674345970153809 0 0.87904244661331177
vn 0.32255780696868896 0 -0.94654977321624756
vn 0.32255780696868896 0 -0.94654977321624756
vn 0.32255780696868896 0 -0.94654977321624756
vn 0.32255780696868896 0 -0.94654977321624756
vn -0.47674345970153809 0 -0.87904244661331177
vn 0 0 -1
vn 0 0 -1
vn -0.47674345970153809 0 -0.87904244661331177
vn 0.47674345970153809 0 0.87904244661331177
vn 0 0 1
vn 0 0 1
vn 0.47674345970153809 0 0.87904244661331177
vn 0 0 -1
vn 0.47674345970153809 0 -0.87904244661331177
vn 0.47674345970153809 0 -0.87904244661331177
vn 0 0 -1
vn -0.047387141734361649 0.9958692193031311 -0.077452652156352997
vn -0.061043858528137207 0.98192906379699707 -0.17913390696048737
vn -0.068126104772090912 0.98228049278259277 -0.17459623515605927
vn 0.96102577447891235 0 0.27645868062973022
vn 0.84221994876861572 0 0.53913408517837524
vn 0.84221994876861572 0 0.53913408517837524
vn 0.96102577447891235 0 0.27645868062973022
vn -0.047387141734361649 -0.9958692193031311 -0.077452652156352997
vn -0.068126104772090912 -0.98228049278259277 -0.17459623515605927
vn -0.061043858528137207 -0.98192906379699707 -0.17913390696048737
vn -0.049443591386079788 0.99588274955749512 -0.075979165732860565
vn -0.047387141734361649 0.9958692193031311 -0.077452652156352997
vn -0.068126104772090912 0.98228049278259277 -0.17459623515605927
vn 0.84221994876861572 0 0.53913408517837524
vn 0.47674345970153809 0 0.87904244661331177
vn 0.47674345970153809 0 0.87904244661331177
vn 0.84221994876861572 0 0.53913408517837524
vn 0.47674345970153809 0 -0.87904244661331177
vn 0.81532156467437744 0 -0.57900846004486084
vn 0.81532156467437744 0 -0.57900846004486084
vn 0.47674345970153809 0 -0.87904244661331177
vn 0.92847669124603271 0 -0.371390700340271
vn 0.81532156467437744 0 -0.57900846004486084
vn 0.81532156467437744 0 -0.57900846004486084
vn 0.92847669124603271 0 -0.371390700340271
vn -0.81532156467437744 0 -0.57900846004486084
vn -0.92847669124603271 0 -0.371390700340271
vn -0.81532156467437744 0 -0.57900846004486084
vn -0.92847669124603271 0 -0.371390700340271
vn -0.84221994876861572 0 0.53913408517837524
vn -0.96102577447891235 0 0.27645868062973022
vn -0.84221994876861572 0 0.53913408517837524
vn -0.96102577447891235 0 0.27645868062973022
vn -0.049443591386079788 -0.99588274955749512 -0.075979165732860565
vn -0.068126104772090912 -0.98228049278259277 -0.17459623515605927
vn -0.047387141734361649 -0.9958692193031311 -0.077452652156352997
vn -0.81532156467437744 0 -0.57900846004486084
vn -0.47674345970153809 0 -0.87904244661331177
vn -0.47674345970153809 0 -0.87904244661331177
vn -0.81532156467437744 0 -0.57900846004486084
vn 0.047387141734361649 0.9958692193031311 -0.077452652156352997
vn 0.068126104772090912 0.98228049278259277 -0.17459623515605927
vn 0.061043858528137207 0.98192906379699707 -0.17913390696048737
vn 0 0 1
vn -0.47674345970153809 0 0.87904244661331177
vn -0.47674345970153809 0 0.87904244661331177
vn 0 0 1
vn 0.049443591386079788 0.99588274955749512 -0.075979165732860565
vn 0.068126104772090912 0.98228049278259277 -0.17459623515605927
vn 0.047387141734361649 0.9958692193031311 -0.077452652156352997
vn 0.047387141734361649 -0.9958692193031311 -0.077452652156352997
vn 0.061043858528137207 -0.98192906379699707 -0.17913390696048737
vn 0.068126104772090912 -0.98228049278259277 -0.17459623515605927
vn 0.049443591386079788 -0.99588274955749512 -0.075979165732860565
vn 0 -1 0
vn 0.047387141734361649 -0.9958692193031311 -0.077452652156352997
vn 0 -1 0
vn 0 -1 0
vn 0 -1 0
vn -0.049443591386079788 -0.99588274955749512 -0.075979165732860565
vn -0.047387141734361649 -0.9958692193031311 -0.077452652156352997
vn 0 -1 0
vn 0 -1 0
vn 0.049443591386079788 -0.99588274955749512 -0.075979165732860565
vn 0.047387141734361649 -0.9958692193031311 -0.077452652156352997
vn 0.068126104772090912 -0.98228049278259277 -0.17459623515605927
vn -0.32255780696868896 0 -0.94654977321624756
vn -0.32255780696868896 0 -0.94654977321624756
vn -0.32255780696868896 0 -0.94654977321624756
vn -0.32255780696868896 0 -0.94654977321624756
f 1//1 2//2 3//3
f 2//2 1//1 4//4
f 2//2 4//4 5//5
f 5//5 4//4 6//6
f 6//6 4//4 7//7
f 8//8 9//9 10//10
f 9//9 8//8 6//6
f 6//6 8//8 5//5
f 11//11 12//12 13//13
f 12//12 11//11 14//14
f 15//15 16//16 17//17
f 16//16 15//15 18//18
f 19//19 20//20 21//21
f 20//20 19//19 22//22
f 23//23 24//24 25//25
f 24//24 23//23 26//26
f 27//27 28//28 29//29
f 28//28 27//27 30//30
f 31//31 32//32 33//33
f 34//34 35//35 36//36
f 35//35 34//34 37//37
f 38//38 39//39 40//40
f 41//41 42//42 43//43
f 44//44 45//45 46//46
f 45//45 44//44 47//47
f 48//48 49//49 50//50
f 49//49 48//48 51//51
f 52//52 53//53 54//54
f 53//53 52//52 55//55
f 56//56 57//57 58//58
f 57//57 56//56 59//59
f 60//60 61//61 62//62
f 61//61 60//60 63//63
f 64//64 65//65 66//66
f 67//67 68//68 69//69
f 68//68 67//67 70//70
f 71//71 72//72 73//73
f 74//74 75//75 76//76
f 75//75 74//74 77//77
f 78//78 79//79 80//80
f 81//81 82//82 83//83
f 84//84 85//85 86//86
f 85//85 84//84 87//87
f 85//85 87//87 88//88
f 89//89 90//90 91//91
f 90//90 89//89 92//92
f 92//92 89//89 88//88
f 92//92 88//88 87//87
f 92//92 87//87 93//93
f 94//94 95//95 96//96
f 97//97 98//98 99//99
f 98//98 97//97 100//100
v 0.046158735645980449 0.001035024269856139 0.057673017142742922
v 0.029282564616420502 0.0018143424516742889 0.040873314537308386
v 0.048147171325947424 0.0018143424516742889 0.043524562110597638
v 0.027294128936453547 0.001035024269856139 0.055021769569453677
v 0.034276776615229008 0.026167684166990682 0.0053376496938185754
v 0.051065526045813263 0.0095309975034436455 0.022759389297687248
v 0.032200919336286341 0.0095309975034436455 0.020108141724397999
v 0.053141383324755889 0.026167684166990682 0.0079888972671078202
v 0.053891541068074138 0.047851842451674301 0.002651247573289339
v 0.034276776615229008 0.026167684166990682 0.0053376496938185754
v 0.035026934358547201 0.047851842451674301 0
v 0.053141383324755889 0.026167684166990682 0.0079888972671078202
v 0.027294128936453541 0.09466866063349251 0.055021769569453712
v 0.048147171325947424 0.093889342451674324 0.043524562110597666
v 0.029282564616420502 0.093889342451674324 0.040873314537308414
v 0.046158735645980456 0.09466866063349251 0.057673017142742956
v 0.044170299966013529 0.0018143424516742889 0.07182147217488806
v 0.027294128936453547 0.001035024269856139 0.055021769569453677
v 0.046158735645980449 0.001035024269856139 0.057673017142742922
v 0.025305693256486628 0.0018143424516742889 0.069170224601598801
v 0.022387338536620782 0.086172687399904982 0.089935397414509205
v 0.044170299966013529 0.093889342451674324 0.07182147217488806
v 0.025305693256486628 0.093889342451674324 0.069170224601598801
v 0.041251945246147718 0.086172687399904982 0.092586644987798422
v 0.044170299966013529 0.0018143424516742889 0.07182147217488806
v 0.022387338536620782 0.0095309975034436455 0.089935397414509205
v 0.025305693256486628 0.0018143424516742889 0.069170224601598801
v 0.041251945246147718 0.0095309975034436455 0.092586644987798422
v 0.034276776615229008 0.06953600073635792 0.0053376496938185754
v 0.053891541068074138 0.047851842451674301 0.002651247573289339
v 0.035026934358547201 0.047851842451674301 0
v 0.053141383324755889 0.06953600073635792 0.0079888972671078202
v 0.019561323514359928 0.047851842451674301 0.11004353913890709
v 0.039176087967205071 0.06953600073635792 0.10735713701837793
v 0.020311481257678128 0.06953600073635792 0.10470588944508864
v 0.038425930223886823 0.047851842451674301 0.11269478671219638
v 0.025305693256486628 0.093889342451674324 0.069170224601598801
v 0.046158735645980456 0.09466866063349251 0.057673017142742956
v 0.027294128936453541 0.09466866063349251 0.055021769569453712
v 0.044170299966013529 0.093889342451674324 0.07182147217488806
v 0.048147171325947424 0.0018143424516742889 0.043524562110597638
v 0.032200919336286341 0.0095309975034436455 0.020108141724397999
v 0.051065526045813263 0.0095309975034436455 0.022759389297687248
v 0.029282564616420502 0.0018143424516742889 0.040873314537308386
v 0.039176087967205071 0.06953600073635792 0.10735713701837793
v 0.022387338536620782 0.086172687399904982 0.089935397414509205
v 0.020311481257678128 0.06953600073635792 0.10470588944508864
v 0.041251945246147718 0.086172687399904982 0.092586644987798422
v 0.041251945246147718 0.0095309975034436455 0.092586644987798422
v 0.020311481257678128 0.026167684166990682 0.10470588944508864
v 0.022387338536620782 0.0095309975034436455 0.089935397414509205
v 0.039176087967205071 0.026167684166990682 0.10735713701837793
v 0.039176087967205071 0.026167684166990682 0.10735713701837793
v 0.019561323514359928 0.047851842451674301 0.11004353913890709
v 0.020311481257678128 0.026167684166990682 0.10470588944508864
v 0.038425930223886823 0.047851842451674301 0.11269478671219638
v 0.025305693256486628 0.0018143424516742889 0.069170224601598801
v 0.029282564616420502 0.0018143424516742889 0.040873314537308386
v 0.027294128936453547 0.001035024269856139 0.055021769569453677
v 0.02539417864424514 0.003863011201674297 0.06854061835266835
v 0.022387338536620782 0.0095309975034436455 0.089935397414509205
v 0.027294128936453551 0.0031183726789470478 0.055021769569453656
v 0.022605690709413331 0.01123627510363992 0.088381740975404188
v 0.020311481257678128 0.026167684166990682 0.10470588944508864
v 0.020622209079383613 0.027132629210659103 0.10249494611062297
v 0.019561323514359928 0.047851842451674301 0.11004353913890709
v 0.019905433355643071 0.047851842451674287 0.10759507039306644
v 0.020622209079383613 0.068571055692689467 0.10249494611062297
v 0.020311481257678128 0.06953600073635792 0.10470588944508864
v 0.022605690709413331 0.084467409799708654 0.088381740975404188
v 0.022387338536620782 0.086172687399904982 0.089935397414509205
v 0.02539417864424514 0.091840673701674286 0.06854061835266835
v 0.025305693256486628 0.093889342451674324 0.069170224601598801
v 0.027294128936453554 0.09258531222440157 0.055021769569453684
v 0.029194079228661962 0.003863011201674297 0.041502920786238871
v 0.032200919336286341 0.0095309975034436455 0.020108141724397999
v 0.031982567163493764 0.01123627510363992 0.02166179816350295
v 0.034276776615229008 0.026167684166990682 0.0053376496938185754
v 0.033966048793523468 0.027132629210659103 0.0075485930282842961
v 0.035026934358547201 0.047851842451674301 0
v 0.034682824517264031 0.047851842451674287 0.0024484687458407469
v 0.033966048793523468 0.068571055692689467 0.0075485930282842961
v 0.034276776615229008 0.06953600073635792 0.0053376496938185754
v 0.031982567163493764 0.084467409799708654 0.02166179816350295
v 0.032200919336286341 0.086172687399904982 0.020108141724398013
v 0.029194079228661948 0.091840673701674286 0.041502920786238941
v 0.029282564616420502 0.093889342451674324 0.040873314537308414
v 0.027294128936453541 0.09466866063349251 0.055021769569453712
v 0.051065526045813263 0.086172687399904982 0.022759389297687258
v 0.034276776615229008 0.06953600073635792 0.0053376496938185754
v 0.032200919336286341 0.086172687399904982 0.020108141724398013
v 0.053141383324755889 0.06953600073635792 0.0079888972671078202
v 0.032200919336286341 0.086172687399904982 0.020108141724398013
v 0.048147171325947424 0.093889342451674324 0.043524562110597666
v 0.051065526045813263 0.086172687399904982 0.022759389297687258
v 0.029282564616420502 0.093889342451674324 0.040873314537308414
v 0.048147171325947424 0.0018143424516742889 0.043524562110597638
v 0.044170299966013529 0.0018143424516742889 0.07182147217488806
v 0.046158735645980449 0.001035024269856139 0.057673017142742922
v 0.051065526045813263 0.0095309975034436455 0.022759389297687248
v 0.041251945246147718 0.0095309975034436455 0.092586644987798422
v 0.053141383324755889 0.026167684166990682 0.0079888972671078202
v 0.039176087967205071 0.026167684166990682 0.10735713701837793
v 0.053891541068074138 0.047851842451674301 0.002651247573289339
v 0.038425930223886823 0.047851842451674301 0.11269478671219638
v 0.053141383324755889 0.06953600073635792 0.0079888972671078202
v 0.039176087967205071 0.06953600073635792 0.10735713701837793
v 0.051065526045813263 0.086172687399904982 0.022759389297687258
v 0.041251945246147718 0.086172687399904982 0.092586644987798422
v 0.048147171325947424 0.093889342451674324 0.043524562110597666
v 0.044170299966013529 0.093889342451674324 0.07182147217488806
v 0.046158735645980456 0.09466866063349251 0.057673017142742956
vn 0.68828684091567993 -0.71896040439605713 0.096732407808303833
vn -0.64783328771591187 -0.72244352102279663 -0.24163481593132019
vn 0.68934088945388794 -0.72244352102279663 -0.053707249462604523
vn -0.68828684091567993 -0.71896040439605713 -0.096732407808303833
vn -0.55748635530471802 -0.35313624143600464 -0.75133466720581055
vn 0.70917993783950806 -0.62407213449478149 -0.32802107930183411
vn -0.5912926197052002 -0.62407213449478149 -0.51079058647155762
vn 0.74298620223999023 -0.35313624143600464 -0.56856513023376465
vn 0.75520282983779907 0 -0.6554911732673645
vn -0.55748635530471802 -0.35313624143600464 -0.75133466720581055
vn -0.54526972770690918 0 -0.83826065063476562
vn 0.74298620223999023 -0.35313624143600464 -0.56856513023376465
vn -0.68828684091567993 0.71896040439605713 -0.096732407808303833
vn 0.68934088945388794 0.72244352102279663 -0.053707249462604523
vn -0.64783328771591187 0.72244352102279663 -0.24163481593132019
vn 0.68828684091567993 0.71896040439605713 0.096732407808303833
vn 0.64783328771591187 -0.72244352102279663 0.24163481593132019
vn -0.68828684091567993 -0.71896040439605713 -0.096732407808303833
vn 0.68828684091567993 -0.71896040439605713 0.096732407808303833
vn -0.68934088945388794 -0.72244352102279663 0.053707249462604523
vn -0.70917993783950806 0.62407213449478149 0.32802107930183411
vn 0.64783328771591187 0.72244352102279663 0.24163481593132019
vn -0.68934088945388794 0.72244352102279663 0.053707249462604523
vn 0.5912926197052002 0.62407213449478149 0.51079058647155762
vn 0.64783328771591187 -0.72244352102279663 0.24163481593132019
vn -0.70917993783950806 -0.62407213449478149 0.32802107930183411
vn -0.68934088945388794 -0.72244352102279663 0.053707249462604523
vn 0.5912926197052002 -0.62407213449478149 0.51079058647155762
vn -0.55748635530471802 0.35313624143600464 -0.75133466720581055
vn 0.75520282983779907 0 -0.6554911732673645
vn -0.54526972770690918 0 -0.83826065063476562
vn 0.74298620223999023 0.35313624143600464 -0.56856513023376465
vn -0.75520282983779907 0 0.6554911732673645
vn 0.55748635530471802 0.35313624143600464 0.75133466720581055
vn -0.74298620223999023 0.35313624143600464 0.56856513023376465
vn 0.54526972770690918 0 0.83826065063476562
vn -0.68934088945388794 0.72244352102279663 0.053707249462604523
vn 0.68828684091567993 0.71896040439605713 0.096732407808303833
vn -0.68828684091567993 0.71896040439605713 -0.096732407808303833
vn 0.64783328771591187 0.72244352102279663 0.24163481593132019
vn 0.68934088945388794 -0.72244352102279663 -0.053707249462604523
vn -0.5912926197052002 -0.62407213449478149 -0.51079058647155762
vn 0.70917993783950806 -0.62407213449478149 -0.32802107930183411
vn -0.64783328771591187 -0.72244352102279663 -0.24163481593132019
vn 0.55748635530471802 0.35313624143600464 0.75133466720581055
vn -0.70917993783950806 0.62407213449478149 0.32802107930183411
vn -0.74298620223999023 0.35313624143600464 0.56856513023376465
vn 0.5912926197052002 0.62407213449478149 0.51079058647155762
vn 0.5912926197052002 -0.62407213449478149 0.51079058647155762
vn -0.74298620223999023 -0.35313624143600464 0.56856513023376465
vn -0.70917993783950806 -0.62407213449478149 0.32802107930183411
vn 0.55748635530471802 -0.35313624143600464 0.75133466720581055
vn 0.55748635530471802 -0.35313624143600464 0.75133466720581055
vn -0.75520282983779907 0 0.6554911732673645
vn -0.74298620223999023 -0.35313624143600464 0.56856513023376465
vn 0.54526972770690918 0 0.83826065063476562
vn -0.68934088945388794 -0.72244352102279663 0.053707249462604523
vn -0.64783328771591187 -0.72244352102279663 -0.24163481593132019
vn -0.68828684091567993 -0.71896040439605713 -0.096732407808303833
vn -0.9902680516242981 0 -0.13917310535907745
vn -0.70917993783950806 -0.62407213449478149 0.32802107930183411
vn -0.9902680516242981 0 -0.13917310535907745
vn -0.9902680516242981 0 -0.13917310535907745
vn -0.74298620223999023 -0.35313624143600464 0.56856513023376465
vn -0.9902680516242981 0 -0.13917310535907745
vn -0.75520282983779907 0 0.6554911732673645
vn -0.9902680516242981 0 -0.13917310535907745
vn -0.9902680516242981 0 -0.13917310535907745
vn -0.74298620223999023 0.35313624143600464 0.56856513023376465
vn -0.9902680516242981 0 -0.13917310535907745
vn -0.70917993783950806 0.62407213449478149 0.32802107930183411
vn -0.9902680516242981 0 -0.13917310535907745
vn -0.68934088945388794 0.72244352102279663 0.053707249462604523
vn -0.9902680516242981 0 -0.13917310535907745
vn -0.9902680516242981 0 -0.13917310535907745
vn -0.5912926197052002 -0.62407213449478149 -0.51079058647155762
vn -0.9902680516242981 0 -0.13917310535907745
vn -0.55748635530471802 -0.35313624143600464 -0.75133466720581055
vn -0.9902680516242981 0 -0.13917310535907745
vn -0.54526972770690918 0 -0.83826065063476562
vn -0.9902680516242981 0 -0.13917310535907745
vn -0.9902680516242981 0 -0.13917310535907745
vn -0.55748635530471802 0.35313624143600464 -0.75133466720581055
vn -0.9902680516242981 0 -0.13917310535907745
vn -0.5912926197052002 0.62407213449478149 -0.51079058647155762
vn -0.9902680516242981 0 -0.13917310535907745
vn -0.64783328771591187 0.72244352102279663 -0.24163481593132019
vn -0.68828684091567993 0.71896040439605713 -0.096732407808303833
vn 0.70917993783950806 0.62407213449478149 -0.32802107930183411
vn -0.55748635530471802 0.35313624143600464 -0.75133466720581055
vn -0.5912926197052002 0.62407213449478149 -0.51079058647155762
vn 0.74298620223999023 0.35313624143600464 -0.56856513023376465
vn -0.5912926197052002 0.62407213449478149 -0.51079058647155762
vn 0.68934088945388794 0.72244352102279663 -0.053707249462604523
vn 0.70917993783950806 0.62407213449478149 -0.32802107930183411
vn -0.64783328771591187 0.72244352102279663 -0.24163481593132019
vn 0.68934088945388794 -0.72244352102279663 -0.053707249462604523
vn 0.64783328771591187 -0.72244352102279663 0.24163481593132019
vn 0.68828684091567993 -0.71896040439605713 0.096732407808303833
vn 0.70917993783950806 -0.62407213449478149 -0.32802107930183411
vn 0.5912926197052002 -0.62407213449478149 0.51079058647155762
vn 0.74298620223999023 -0.35313624143600464 -0.56856513023376465
vn 0.55748635530471802 -0.35313624143600464 0.75133466720581055
vn 0.75520282983779907 0 -0.6554911732673645
vn 0.54526972770690918 0 0.83826065063476562
vn 0.74298620223999023 0.35313624143600464 -0.56856513023376465
vn 0.55748635530471802 0.35313624143600464 0.75133466720581055
vn 0.70917993783950806 0.62407213449478149 -0.32802107930183411
vn 0.5912926197052002 0.62407213449478149 0.51079058647155762
vn 0.68934088945388794 0.72244352102279663 -0.053707249462604523
vn 0.64783328771591187 0.72244352102279663 0.24163481593132019
vn 0.68828684091567993 0.71896040439605713 0.096732407808303833
f 101//101 102//102 103//103
f 102//102 101//101 104//104
f 105//105 106//106 107//107
f 106//106 105//105 108//108
f 109//109 110//110 111//111
f 110//110 109//109 112//112
f 113//113 114//114 115//115
f 114//114 113//113 116//116
f 117//117 118//118 119//119
f 118//118 117//117 120//120
f 121//121 122//122 123//123
f 122//122 121//121 124//124
f 125//125 126//126 127//127
f 126//126 125//125 128//128
f 129//129 130//130 131//131
f 130//130 129//129 132//132
f 133//133 134//134 135//135
f 134//134 133//133 136//136
f 137//137 138//138 139//139
f 138//138 137//137 140//140
f 141//141 142//142 143//143
f 142//142 141//141 144//144
f 145//145 146//146 147//147
f 146//146 145//145 148//148
f 149//149 150//150 151//151
f 150//150 149//149 152//152
f 153//153 154//154 155//155
f 154//154 153//153 156//156
f 157//157 158//158 159//159
f 158//158 157//157 160//160
f 160//160 157//157 161//161
f 158//158 160//160 162//162
f 160//160 161//161 163//163
f 163//163 161//161 164//164
f 163//163 164//164 165//165
f 165//165 164//164 166//166
f 165//165 166//166 167//167
f 167//167 166//166 168//168
f 168//168 166//166 169//169
f 168//168 169//169 170//170
f 170//170 169//169 171//171
f 170//170 171//171 172//172
f 172//172 171//171 173//173
f 172//172 173//173 174//174
f 158//158 175//175 176//176
f 175//175 158//158 162//162
f 176//176 175//175 177//177
f 176//176 177//177 178//178
f 178//178 177//177 179//179
f 178//178 179//179 180//180
f 180//180 179//179 181//181
f 180//180 181//181 182//182
f 180//180 182//182 183//183
f 183//183 182//182 184//184
f 183//183 184//184 185//185
f 185//185 184//184 186//186
f 185//185 186//186 187//187
f 187//187 186//186 174//174
f 187//187 174//174 173//173
f 187//187 173//173 188//188
f 189//189 190//190 191//191
f 190//190 189//189 192//192
f 193//193 194//194 195//195
f 194//194 193//193 196//196
f 197//197 198//198 199//199
f 198//198 197//197 200//200
f 198//198 200//200 201//201
f 201//201 200//200 202//202
f 201//201 202//202 203//203
f 203//203 202//202 204//204
f 203//203 204//204 205//205
f 205//205 204//204 206//206
f 205//205 206//206 207//207
f 207//207 206//206 208//208
f 207//207 208//208 209//209
f 209//209 208//208 210//210
f 209//209 210//210 211//211
f 211//211 210//210 212//212
v 0.009240378913607579 0.075264074261237948 0.024802852966165249
v 0.02711553281709262 0.047851842451674287 0.011681106580802382
v 0.010820622420078082 0.047851842451674287 0.013558836166230739
v 0.025367050038166382 0.07818249405992396 0.024122208006084282
v 0.016457400972666611 0.084467409799708654 0.087517655203809594
v 0.02539417864424514 0.091840673701674286 0.06854061835266835
v 0.019245888907498409 0.091840673701674286 0.067676532581073715
v 0.022605690709413331 0.084467409799708654 0.088381740975404188
v 3.0044796790851952E-05 0.047851842451674287 0.090337785474005297
v 0.016924628361247376 0.07818249405992396 0.084193159589633901
v 0.0016102883032613306 0.075264074261237948 0.079093768674070877
v 0.015176145582321133 0.047851842451674287 0.096634261014915748
v 0.019905433355643071 0.047851842451674287 0.10759507039306644
v 0.014473919342636902 0.068571055692689467 0.10163086033902843
v 0.013757143618896343 0.047851842451674287 0.10673098462147185
v 0.020622209079383613 0.068571055692689467 0.10249494611062297
v 0.016924628361247376 0.017521190843424621 0.084193159589633915
v 0.0054253336084344461 0.0090850924516742843 0.05194831082011804
v 0.021145839199706876 0.0049578235916742661 0.054157683797859076
v 0.0016102883032613202 0.020439610642110684 0.079093768674070905
v 0.0096680175108900014 0.056778589520798395 0.13312938973840083
v 0.0035821156208620062 0.038925095382550241 0.11170531385772003
v 0.0096680175108900014 0.038925095382550165 0.13312938973840083
v 0.0035821156208619993 0.056778589520798395 0.11170531385772008
v 0.018808866664257018 0.029222847451674309 0.14690333085032725
v 0.0067152182141917843 0.033183342451674293 0.13159215807696004
v 0.014508206434348339 0.033183342451674293 0.13010307321998543
v 0.0089117716246581245 0.029222847451674309 0.14879446861868514
v 0.0089117716246581245 0.066480837451674324 0.14879446861868514
v 0.0067152182141917843 0.033183342451674293 0.13159215807696004
v 0.0089117716246581245 0.029222847451674309 0.14879446861868514
v 0.0067152182141917843 0.062520342451674316 0.13159215807696004
v 0.016924628361247376 0.017521190843424621 0.084193159589633915
v 3.0044796790851952E-05 0.047851842451674287 0.090337785474005297
v 0.0016102883032613202 0.020439610642110684 0.079093768674070905
v 0.015176145582321133 0.047851842451674287 0.096634261014915748
v 0.0066589178059697435 0.0083070297157972119 0.089812728748038903
v 0.011853448344705763 0.0031183726789470816 0.052851723430716577
v 0.010212566830119391 0.0003439047016743295 0.064527202077624427
v 0.011094998770616912 0.0049578235916741984 0.058248372566143472
v 0.0082417837061874062 0.01070453244850544 0.07855005264703574
v 0.0041311688166598692 0.02547509215137795 0.1077985973723616
v 0.006153085314104057 0.026404833021674297 0.09341191394525776
v 0.0035821156208620062 0.038925095382550241 0.11170531385772003
v 0.0053885686417578802 0.047851842451674308 0.098851732727927771
v 0.0035821156208619993 0.056778589520798395 0.11170531385772008
v 0.006153085314104057 0.069298851881674298 0.09341191394525776
v 0.004131168816659871 0.070228592751970687 0.10779859737236167
v 0.008241783706187401 0.084999152454843088 0.078550052647035712
v 0.0066589178059697426 0.087396655187551409 0.089812728748038945
v 0.011094998770616919 0.090745861311674336 0.058248372566143437
v 0.010212566830119407 0.095359780201674141 0.06452720207762469
v 0.011853448344705765 0.092585312224401445 0.052851723430716584
v 0.013425498903832992 0.0031183726789471098 0.053072660728490685
v 0.0082309683650969804 0.0083070297157972397 0.090033666045813032
v 0.011784617389246606 0.00034390470167435769 0.064748139375398556
v 0.012667049329744154 0.0049578235916742271 0.058469309863917573
v 0.0098138342653146422 0.01070453244850547 0.078770989944809841
v 0.0057032193757871694 0.025475092151377977 0.10801953467013559
v 0.0077251358732313355 0.026404833021674328 0.093632851243031875
v 0.0051541661799892457 0.038925095382550269 0.11192625115549414
v 0.0069606192008851119 0.047851842451674335 0.099072670025701942
v 0.0051541661799893047 0.056778589520798416 0.11192625115549404
v 0.0077251358732313355 0.069298851881674325 0.093632851243031875
v 0.0057032193757871243 0.070228592751970714 0.10801953467013574
v 0.009813834265314644 0.084999152454843116 0.078770989944809827
v 0.0082309683650969682 0.087396655187551422 0.09003366604581306
v 0.012667049329744155 0.09074586131167435 0.058469309863917539
v 0.011784617389246648 0.095359780201674169 0.064748139375398792
v 0.01342549890383303 0.092585312224401459 0.053072660728490602
v 0.023045789491915228 0.091840673701674286 0.04063883501464443
v 0.031982567163493764 0.084467409799708654 0.02166179816350295
v 0.025834277426747057 0.084467409799708654 0.020797712391908387
v 0.029194079228661948 0.091840673701674286 0.041502920786238941
v 0.0016102883032613202 0.020439610642110684 0.079093768674070905
v 0.009240378913607579 0.020439610642110684 0.024802852966165249
v 0.0054253336084344461 0.0090850924516742843 0.05194831082011804
v 3.0044796790851952E-05 0.047851842451674287 0.090337785474005297
v 0.010820622420078082 0.047851842451674287 0.013558836166230739
v 0.0016102883032613306 0.075264074261237948 0.079093768674070877
v 0.009240378913607579 0.075264074261237948 0.024802852966165249
v 0.0054253336084344461 0.086618592451674317 0.05194831082011804
v 0.009240378913607579 0.075264074261237948 0.024802852966165249
v 0.021145839199706869 0.090745861311674364 0.054157683797859055
v 0.025367050038166382 0.07818249405992396 0.024122208006084282
v 0.0054253336084344461 0.086618592451674317 0.05194831082011804
v 0.014473919342636902 0.068571055692689467 0.10163086033902843
v 0.022605690709413331 0.084467409799708654 0.088381740975404188
v 0.016457400972666611 0.084467409799708654 0.087517655203809594
v 0.020622209079383613 0.068571055692689467 0.10249494611062297
v 0.019245888907498409 0.003863011201674297 0.067676532581073715
v 0.023045789491915228 0.003863011201674297 0.040638835014644423
v 0.021145839199706806 0.0031183726789470478 0.054157683797859069
v 0.021145839199706876 0.0049578235916742661 0.054157683797859076
v 0.016457400972666611 0.01123627510363992 0.087517655203809594
v 0.016924628361247376 0.017521190843424621 0.084193159589633915
v 0.014473919342636902 0.027132629210659103 0.10163086033902843
v 0.015176145582321133 0.047851842451674287 0.096634261014915748
v 0.013757143618896343 0.047851842451674287 0.10673098462147185
v 0.014473919342636902 0.068571055692689467 0.10163086033902843
v 0.016924628361247376 0.07818249405992396 0.084193159589633901
v 0.016457400972666611 0.084467409799708654 0.087517655203809594
v 0.021145839199706869 0.090745861311674364 0.054157683797859055
v 0.019245888907498409 0.091840673701674286 0.067676532581073715
v 0.025834277426747057 0.01123627510363992 0.020797712391908387
v 0.025367050038166382 0.017521190843424621 0.024122208006084282
v 0.027817759056776758 0.027132629210659103 0.0066845072566897694
v 0.02711553281709262 0.047851842451674287 0.011681106580802382
v 0.028534534780517325 0.047851842451674287 0.001584382974246215
v 0.025367050038166382 0.07818249405992396 0.024122208006084282
v 0.027817759056776758 0.068571055692689467 0.0066845072566897694
v 0.025834277426747057 0.084467409799708654 0.020797712391908387
v 0.023045789491915228 0.091840673701674286 0.04063883501464443
v 0.021145839199706799 0.09258531222440157 0.054157683797859089
v 0.014473919342636902 0.027132629210659103 0.10163086033902843
v 0.019905433355643071 0.047851842451674287 0.10759507039306644
v 0.013757143618896343 0.047851842451674287 0.10673098462147185
v 0.020622209079383613 0.027132629210659103 0.10249494611062297
v 0.021145839199706876 0.0049578235916742661 0.054157683797859076
v 0.009240378913607579 0.020439610642110684 0.024802852966165249
v 0.025367050038166382 0.017521190843424621 0.024122208006084282
v 0.0054253336084344461 0.0090850924516742843 0.05194831082011804
v 0.022605690709413331 0.01123627510363992 0.088381740975404188
v 0.014473919342636902 0.027132629210659103 0.10163086033902843
v 0.016457400972666611 0.01123627510363992 0.087517655203809594
v 0.020622209079383613 0.027132629210659103 0.10249494611062297
v 0.02539417864424514 0.003863011201674297 0.06854061835266835
v 0.016457400972666611 0.01123627510363992 0.087517655203809594
v 0.019245888907498409 0.003863011201674297 0.067676532581073715
v 0.022605690709413331 0.01123627510363992 0.088381740975404188
v 0.023045789491915228 0.091840673701674286 0.04063883501464443
v 0.027294128936453554 0.09258531222440157 0.055021769569453684
v 0.029194079228661948 0.091840673701674286 0.041502920786238941
v 0.021145839199706799 0.09258531222440157 0.054157683797859089
v 0.0067152182141917843 0.062520342451674316 0.13159215807696004
v 0.018808866664256997 0.066480837451674338 0.14690333085032742
v 0.014508206434348319 0.062520342451674329 0.13010307321998552
v 0.0089117716246581245 0.066480837451674324 0.14879446861868514
v 0.027294128936453551 0.0031183726789470478 0.055021769569453656
v 0.019245888907498409 0.003863011201674297 0.067676532581073715
v 0.021145839199706806 0.0031183726789470478 0.054157683797859069
v 0.02539417864424514 0.003863011201674297 0.06854061835266835
v 0.014508206434348319 0.062520342451674329 0.13010307321998552
v 0.0067152182141917843 0.033183342451674293 0.13159215807696004
v 0.0067152182141917843 0.062520342451674316 0.13159215807696004
v 0.014508206434348339 0.033183342451674293 0.13010307321998543
v 0.027294128936453551 0.0031183726789470478 0.055021769569453656
v 0.023045789491915228 0.003863011201674297 0.040638835014644423
v 0.029194079228661962 0.003863011201674297 0.041502920786238871
v 0.021145839199706806 0.0031183726789470478 0.054157683797859069
v 0.019245888907498409 0.091840673701674286 0.067676532581073715
v 0.027294128936453554 0.09258531222440157 0.055021769569453684
v 0.021145839199706799 0.09258531222440157 0.054157683797859089
v 0.02539417864424514 0.091840673701674286 0.06854061835266835
v 0.0051541661799892457 0.038925095382550269 0.11192625115549414
v 0.011240068070017246 0.056778589520798416 0.13335032703617494
v 0.011240068070017246 0.038925095382550193 0.13335032703617494
v 0.0051541661799893047 0.056778589520798416 0.11192625115549404
v 0.014508206434348339 0.033183342451674293 0.13010307321998543
v 0.018808866664256997 0.066480837451674338 0.14690333085032742
v 0.018808866664257018 0.029222847451674309 0.14690333085032725
v 0.014508206434348319 0.062520342451674329 0.13010307321998552
v 0.031982567163493764 0.01123627510363992 0.02166179816350295
v 0.023045789491915228 0.003863011201674297 0.040638835014644423
v 0.025834277426747057 0.01123627510363992 0.020797712391908387
v 0.029194079228661962 0.003863011201674297 0.041502920786238871
v 0.033966048793523468 0.068571055692689467 0.0075485930282842961
v 0.028534534780517325 0.047851842451674287 0.001584382974246215
v 0.027817759056776758 0.068571055692689467 0.0066845072566897694
v 0.034682824517264031 0.047851842451674287 0.0024484687458407469
v 0.031982567163493764 0.084467409799708654 0.02166179816350295
v 0.027817759056776758 0.068571055692689467 0.0066845072566897694
v 0.025834277426747057 0.084467409799708654 0.020797712391908387
v 0.033966048793523468 0.068571055692689467 0.0075485930282842961
v 0.0054253336084344461 0.086618592451674317 0.05194831082011804
v 0.016924628361247376 0.07818249405992396 0.084193159589633901
v 0.021145839199706869 0.090745861311674364 0.054157683797859055
v 0.0016102883032613306 0.075264074261237948 0.079093768674070877
v 0.02711553281709262 0.047851842451674287 0.011681106580802382
v 0.009240378913607579 0.020439610642110684 0.024802852966165249
v 0.010820622420078082 0.047851842451674287 0.013558836166230739
v 0.025367050038166382 0.017521190843424621 0.024122208006084282
v 0.018808866664257018 0.029222847451674309 0.14690333085032725
v 0.0089117716246581245 0.066480837451674324 0.14879446861868514
v 0.0089117716246581245 0.029222847451674309 0.14879446861868514
v 0.018808866664256997 0.066480837451674338 0.14690333085032742
v 0.033966048793523468 0.027132629210659103 0.0075485930282842961
v 0.025834277426747057 0.01123627510363992 0.020797712391908387
v 0.027817759056776758 0.027132629210659103 0.0066845072566897694
v 0.031982567163493764 0.01123627510363992 0.02166179816350295
v 0.028534534780517325 0.047851842451674287 0.001584382974246215
v 0.033966048793523468 0.027132629210659103 0.0075485930282842961
v 0.027817759056776758 0.027132629210659103 0.0066845072566897694
v 0.034682824517264031 0.047851842451674287 0.0024484687458407469
vn -0.15392790734767914 0.68435627222061157 -0.71271497011184692
vn -0.11447654664516449 0 -0.99342596530914307
vn -0.11447654664516449 0 -0.99342596530914307
vn -0.15392790734767914 0.68435627222061157 -0.71271497011184692
vn -0.078152216970920563 0.82744491100311279 0.55608195066452026
vn -0.028134142979979515 0.9793541431427002 0.20018483698368073
vn -0.028134142979979515 0.9793541431427002 0.20018483698368073
vn -0.078152216970920563 0.82744491100311279 0.55608195066452026
vn -0.38386723399162292 0 0.92338830232620239
vn -0.34441587328910828 0.68435627222061157 0.64267736673355103
vn -0.34441587328910828 0.68435627222061157 0.64267736673355103
vn -0.38386723399162292 0 0.92338830232620239
vn -0.13917310535907745 0 0.9902680516242981
vn -0.12297528982162476 0.46821638941764832 0.8750145435333252
vn -0.13917310535907745 0 0.9902680516242981
vn -0.12297528982162476 0.46821638941764832 0.8750145435333252
vn -0.34441587328910828 -0.68435627222061157 0.64267736673355103
vn -0.2491719126701355 -0.96782594919204712 -0.035018827766180038
vn -0.2491719126701355 -0.96782594919204712 -0.035018827766180038
vn -0.34441587328910828 -0.68435627222061157 0.64267736673355103
vn 0.96194106340408325 0 -0.27325701713562012
vn 0.96194106340408325 0 -0.27325701713562012
vn 0.96194106340408325 0 -0.27325701713562012
vn 0.96194106340408325 0 -0.27325701713562012
vn -0.041862756013870239 -0.97480732202529907 -0.21908485889434814
vn -0.041862756013870239 -0.97480732202529907 -0.21908485889434814
vn -0.041862756013870239 -0.97480732202529907 -0.21908485889434814
vn -0.041862756013870239 -0.97480732202529907 -0.21908485889434814
vn -0.99194604158401489 0 0.12666106224060059
vn -0.99194604158401489 0 0.12666106224060059
vn -0.99194604158401489 0 0.12666106224060059
vn -0.99194604158401489 0 0.12666106224060059
vn -0.34441587328910828 -0.68435627222061157 0.64267736673355103
vn -0.38386723399162292 0 0.92338830232620239
vn -0.34441587328910828 -0.68435627222061157 0.64267736673355103
vn -0.38386723399162292 0 0.92338830232620239
vn 0.9902680516242981 0 0.13917310535907745
vn 0.9902680516242981 0 0.13917310535907745
vn 0.9902680516242981 0 0.13917310535907745
vn 0.9902680516242981 0 0.13917310535907745
vn 0.9902680516242981 0 0.13917310535907745
vn 0.9902680516242981 0 0.13917310535907745
vn 0.9902680516242981 0 0.13917310535907745
vn 0.9902680516242981 0 0.13917310535907745
vn 0.9902680516242981 0 0.13917310535907745
vn 0.9902680516242981 0 0.13917310535907745
vn 0.9902680516242981 0 0.13917310535907745
vn 0.9902680516242981 0 0.13917310535907745
vn 0.9902680516242981 0 0.13917310535907745
vn 0.9902680516242981 0 0.13917310535907745
vn 0.9902680516242981 0 0.13917310535907745
vn 0.9902680516242981 0 0.13917310535907745
vn 0.9902680516242981 0 0.13917310535907745
vn -0.9902680516242981 0 -0.13917310535907745
vn -0.9902680516242981 0 -0.13917310535907745
vn -0.9902680516242981 0 -0.13917310535907745
vn -0.9902680516242981 0 -0.13917310535907745
vn -0.9902680516242981 0 -0.13917310535907745
vn -0.9902680516242981 0 -0.13917310535907745
vn -0.9902680516242981 0 -0.13917310535907745
vn -0.9902680516242981 0 -0.13917310535907745
vn -0.9902680516242981 0 -0.13917310535907745
vn -0.9902680516242981 0 -0.13917310535907745
vn -0.9902680516242981 0 -0.13917310535907745
vn -0.9902680516242981 0 -0.13917310535907745
vn -0.9902680516242981 0 -0.13917310535907745
vn -0.9902680516242981 0 -0.13917310535907745
vn -0.9902680516242981 0 -0.13917310535907745
vn -0.9902680516242981 0 -0.13917310535907745
vn -0.9902680516242981 0 -0.13917310535907745
vn 0.028134142979979515 0.9793541431427002 -0.20018483698368073
vn 0.078152216970920563 0.82744491100311279 -0.55608195066452026
vn 0.078152216970920563 0.82744491100311279 -0.55608195066452026
vn 0.028134142979979515 0.9793541431427002 -0.20018483698368073
vn -0.9902680516242981 0 -0.13917310535907745
vn -0.9902680516242981 0 -0.13917310535907745
vn -0.9902680516242981 0 -0.13917310535907745
vn -0.9902680516242981 0 -0.13917310535907745
vn -0.9902680516242981 0 -0.13917310535907745
vn -0.9902680516242981 0 -0.13917310535907745
vn -0.9902680516242981 0 -0.13917310535907745
vn -0.9902680516242981 0 -0.13917310535907745
vn -0.15392790734767914 0.68435627222061157 -0.71271497011184692
vn -0.2491719126701355 0.96782594919204712 -0.035018827766180038
vn -0.15392790734767914 0.68435627222061157 -0.71271497011184692
vn -0.2491719126701355 0.96782594919204712 -0.035018827766180038
vn -0.12297528982162476 0.46821638941764832 0.8750145435333252
vn -0.078152216970920563 0.82744491100311279 0.55608195066452026
vn -0.078152216970920563 0.82744491100311279 0.55608195066452026
vn -0.12297528982162476 0.46821638941764832 0.8750145435333252
vn -0.9902680516242981 0 -0.13917310535907745
vn -0.9902680516242981 0 -0.13917310535907745
vn -0.9902680516242981 0 -0.13917310535907745
vn -0.9902680516242981 0 -0.13917310535907745
vn -0.9902680516242981 0 -0.13917310535907745
vn -0.9902680516242981 0 -0.13917310535907745
vn -0.9902680516242981 0 -0.13917310535907745
vn -0.9902680516242981 0 -0.13917310535907745
vn -0.9902680516242981 0 -0.13917310535907745
vn -0.9902680516242981 0 -0.13917310535907745
vn -0.9902680516242981 0 -0.13917310535907745
vn -0.9902680516242981 0 -0.13917310535907745
vn -0.9902680516242981 0 -0.13917310535907745
vn -0.9902680516242981 0 -0.13917310535907745
vn -0.9902680516242981 0 -0.13917310535907745
vn -0.9902680516242981 0 -0.13917310535907745
vn -0.9902680516242981 0 -0.13917310535907745
vn -0.9902680516242981 0 -0.13917310535907745
vn -0.9902680516242981 0 -0.13917310535907745
vn -0.9902680516242981 0 -0.13917310535907745
vn -0.9902680516242981 0 -0.13917310535907745
vn -0.9902680516242981 0 -0.13917310535907745
vn -0.9902680516242981 0 -0.13917310535907745
vn -0.9902680516242981 0 -0.13917310535907745
vn -0.12297528982162476 -0.46821638941764832 0.8750145435333252
vn -0.13917310535907745 0 0.9902680516242981
vn -0.13917310535907745 0 0.9902680516242981
vn -0.12297528982162476 -0.46821638941764832 0.8750145435333252
vn -0.2491719126701355 -0.96782594919204712 -0.035018827766180038
vn -0.15392790734767914 -0.68435627222061157 -0.71271497011184692
vn -0.15392790734767914 -0.68435627222061157 -0.71271497011184692
vn -0.2491719126701355 -0.96782594919204712 -0.035018827766180038
vn -0.078152216970920563 -0.82744491100311279 0.55608195066452026
vn -0.12297528982162476 -0.46821638941764832 0.8750145435333252
vn -0.078152216970920563 -0.82744491100311279 0.55608195066452026
vn -0.12297528982162476 -0.46821638941764832 0.8750145435333252
vn -0.028134142979979515 -0.9793541431427002 0.20018483698368073
vn -0.078152216970920563 -0.82744491100311279 0.55608195066452026
vn -0.028134142979979515 -0.9793541431427002 0.20018483698368073
vn -0.078152216970920563 -0.82744491100311279 0.55608195066452026
vn 0.028134142979979515 0.9793541431427002 -0.20018483698368073
vn 0 1 0
vn 0.028134142979979515 0.9793541431427002 -0.20018483698368073
vn 0 1 0
vn -0.041862756013870239 0.97480732202529907 -0.21908485889434814
vn -0.041862756013870239 0.97480732202529907 -0.21908485889434814
vn -0.041862756013870239 0.97480732202529907 -0.21908485889434814
vn -0.041862756013870239 0.97480732202529907 -0.21908485889434814
vn 0 -1 0
vn -0.028134142979979515 -0.9793541431427002 0.20018483698368073
vn 0 -1 0
vn -0.028134142979979515 -0.9793541431427002 0.20018483698368073
vn -0.18768446147441864 0 -0.98222935199737549
vn -0.18768446147441864 0 -0.98222935199737549
vn -0.18768446147441864 0 -0.98222935199737549
vn -0.18768446147441864 0 -0.98222935199737549
vn 0 -1 0
vn 0.028134142979979515 -0.9793541431427002 -0.20018483698368073
vn 0.028134142979979515 -0.9793541431427002 -0.20018483698368073
vn 0 -1 0
vn -0.028134142979979515 0.9793541431427002 0.20018483698368073
vn 0 1 0
vn 0 1 0
vn -0.028134142979979515 0.9793541431427002 0.20018483698368073
vn -0.96194106340408325 0 0.27325701713562012
vn -0.96194106340408325 0 0.27325701713562012
vn -0.96194106340408325 0 0.27325701713562012
vn -0.96194106340408325 0 0.27325701713562012
vn 0.96876227855682373 0 -0.24799127876758575
vn 0.96876227855682373 0 -0.24799127876758575
vn 0.96876227855682373 0 -0.24799127876758575
vn 0.96876227855682373 0 -0.24799127876758575
vn 0.078152216970920563 -0.82744491100311279 -0.55608195066452026
vn 0.028134142979979515 -0.9793541431427002 -0.20018483698368073
vn 0.078152216970920563 -0.82744491100311279 -0.55608195066452026
vn 0.028134142979979515 -0.9793541431427002 -0.20018483698368073
vn 0.12297528982162476 0.46821638941764832 -0.8750145435333252
vn 0.13917310535907745 0 -0.9902680516242981
vn 0.12297528982162476 0.46821638941764832 -0.8750145435333252
vn 0.13917310535907745 0 -0.9902680516242981
vn 0.078152216970920563 0.82744491100311279 -0.55608195066452026
vn 0.12297528982162476 0.46821638941764832 -0.8750145435333252
vn 0.078152216970920563 0.82744491100311279 -0.55608195066452026
vn 0.12297528982162476 0.46821638941764832 -0.8750145435333252
vn -0.2491719126701355 0.96782594919204712 -0.035018827766180038
vn -0.34441587328910828 0.68435627222061157 0.64267736673355103
vn -0.2491719126701355 0.96782594919204712 -0.035018827766180038
vn -0.34441587328910828 0.68435627222061157 0.64267736673355103
vn -0.11447654664516449 0 -0.99342596530914307
vn -0.15392790734767914 -0.68435627222061157 -0.71271497011184692
vn -0.11447654664516449 0 -0.99342596530914307
vn -0.15392790734767914 -0.68435627222061157 -0.71271497011184692
vn 0.18768446147441864 0 0.98222935199737549
vn 0.18768446147441864 0 0.98222935199737549
vn 0.18768446147441864 0 0.98222935199737549
vn 0.18768446147441864 0 0.98222935199737549
vn 0.12297528982162476 -0.46821638941764832 -0.8750145435333252
vn 0.078152216970920563 -0.82744491100311279 -0.55608195066452026
vn 0.12297528982162476 -0.46821638941764832 -0.8750145435333252
vn 0.078152216970920563 -0.82744491100311279 -0.55608195066452026
vn 0.13917310535907745 0 -0.9902680516242981
vn 0.12297528982162476 -0.46821638941764832 -0.8750145435333252
vn 0.12297528982162476 -0.46821638941764832 -0.8750145435333252
vn 0.13917310535907745 0 -0.9902680516242981
f 213//213 214//214 215//215
f 214//214 213//213 216//216
f 217//217 218//218 219//219
f 218//218 217//217 220//220
f 221//221 222//222 223//223
f 222//222 221//221 224//224
f 225//225 226//226 227//227
f 226//226 225//225 228//228
f 229//229 230//230 231//231
f 230//230 229//229 232//232
f 233//233 235//235 234//234
f 234//234 236//236 233//233
f 237//237 238//238 239//239
f 238//238 237//237 240//240
f 241//241 242//242 243//243
f 242//242 241//241 244//244
f 245//245 246//246 247//247
f 246//246 245//245 248//248
f 249//249 251//251 250//250
f 250//250 252//252 249//249
f 252//252 253//253 249//249
f 253//253 254//254 249//249
f 253//253 255//255 254//254
f 255//255 256//256 254//254
f 255//255 257//257 256//256
f 257//257 258//258 256//256
f 257//257 259//259 258//258
f 259//259 260//260 258//258
f 259//259 261//261 260//260
f 261//261 262//262 260//260
f 261//261 263//263 262//262
f 263//263 264//264 262//262
f 263//263 265//265 264//264
f 266//266 268//268 267//267
f 267//267 269//269 266//266
f 267//267 270//270 269//269
f 267//267 271//271 270//270
f 271//271 272//272 270//270
f 271//271 273//273 272//272
f 273//273 274//274 272//272
f 273//273 275//275 274//274
f 275//275 276//276 274//274
f 275//275 277//277 276//276
f 277//277 278//278 276//276
f 277//277 279//279 278//278
f 279//279 280//280 278//278
f 279//279 281//281 280//280
f 281//281 282//282 280//280
f 283//283 284//284 285//285
f 284//284 283//283 286//286
f 287//287 288//288 289//289
f 288//288 287//287 290//290
f 288//288 290//290 291//291
f 291//291 290//290 292//292
f 291//291 292//292 293//293
f 293//293 292//292 294//294
f 295//295 296//296 297//297
f 296//296 295//295 298//298
f 299//299 300//300 301//301
f 300//300 299//299 302//302
f 303//303 304//304 305//305
f 304//304 303//303 306//306
f 306//306 303//303 307//307
f 306//306 307//307 308//308
f 308//308 307//307 309//309
f 308//308 309//309 310//310
f 310//310 309//309 311//311
f 310//310 311//311 312//312
f 310//310 312//312 313//313
f 313//313 312//312 314//314
f 313//313 314//314 315//315
f 315//315 314//314 316//316
f 306//306 317//317 304//304
f 317//317 306//306 318//318
f 317//317 318//318 319//319
f 319//319 318//318 320//320
f 319//319 320//320 321//321
f 321//321 320//320 322//322
f 321//321 322//322 323//323
f 323//323 322//322 324//324
f 324//324 322//322 315//315
f 324//324 315//315 325//325
f 325//325 315//315 316//316
f 325//325 316//316 326//326
f 327//327 328//328 329//329
f 328//328 327//327 330//330
f 331//331 332//332 333//333
f 332//332 331//331 334//334
f 335//335 336//336 337//337
f 336//336 335//335 338//338
f 339//339 340//340 341//341
f 340//340 339//339 342//342
f 343//343 344//344 345//345
f 344//344 343//343 346//346
f 347//347 348//348 349//349
f 348//348 347//347 350//350
f 351//351 352//352 353//353
f 352//352 351//351 354//354
f 355//355 356//356 357//357
f 356//356 355//355 358//358
f 359//359 360//360 361//361
f 360//360 359//359 362//362
f 363//363 364//364 365//365
f 364//364 363//363 366//366
f 367//367 369//369 368//368
f 368//368 370//370 367//367
f 371//371 372//372 373//373
f 372//372 371//371 374//374
f 375//375 376//376 377//377
f 376//376 375//375 378//378
f 379//379 380//380 381//381
f 380//380 379//379 382//382
f 383//383 384//384 385//385
f 384//384 383//383 386//386
f 387//387 388//388 389//389
f 388//388 387//387 390//390
f 391//391 392//392 393//393
f 392//392 391//391 394//394
f 395//395 396//396 397//397
f 396//396 395//395 398//398
f 399//399 400//400 401//401
f 400//400 399//399 402//402
f 403//403 404//404 405//405
f 404//404 403//403 406//406
v 0.14599423604209785 0.001035024269856139 0.057673017142742845
v 0.16287040707165779 0.0018143424516742889 0.04087331453730831
v 0.14400580036213087 0.0018143424516742889 0.043524562110597555
v 0.16485884275162474 0.001035024269856139 0.0550217695694536
v 0.15787619507284931 0.026167684166990682 0.0053376496938184956
v 0.14108744564226505 0.0095309975034436455 0.022759389297687165
v 0.15995205235179197 0.0095309975034436455 0.020108141724397916
v 0.13901158836332242 0.026167684166990682 0.0079888972671077387
v 0.13826143062000418 0.047851842451674301 0.0026512475732892583
v 0.15787619507284931 0.026167684166990682 0.0053376496938184956
v 0.15712603732953109 0.047851842451674301 0
v 0.13901158836332242 0.026167684166990682 0.0079888972671077387
v 0.16485884275162477 0.09466866063349251 0.055021769569453635
v 0.14400580036213087 0.093889342451674324 0.043524562110597582
v 0.16287040707165779 0.093889342451674324 0.040873314537308338
v 0.14599423604209782 0.09466866063349251 0.05767301714274288
v 0.14798267172206475 0.0018143424516742889 0.07182147217488799
v 0.16485884275162474 0.001035024269856139 0.0550217695694536
v 0.14599423604209785 0.001035024269856139 0.057673017142742845
v 0.16684727843159167 0.0018143424516742889 0.069170224601598732
v 0.16976563315145751 0.086172687399904982 0.089935397414509136
v 0.14798267172206475 0.093889342451674324 0.07182147217488799
v 0.16684727843159167 0.093889342451674324 0.069170224601598732
v 0.1509010264419306 0.086172687399904982 0.092586644987798353
v 0.14798267172206475 0.0018143424516742889 0.07182147217488799
v 0.16976563315145751 0.0095309975034436455 0.089935397414509136
v 0.16684727843159167 0.0018143424516742889 0.069170224601598732
v 0.1509010264419306 0.0095309975034436455 0.092586644987798353
v 0.15787619507284931 0.06953600073635792 0.0053376496938184956
v 0.13826143062000418 0.047851842451674301 0.0026512475732892583
v 0.15712603732953109 0.047851842451674301 0
v 0.13901158836332242 0.06953600073635792 0.0079888972671077387
v 0.17259164817371836 0.047851842451674301 0.11004353913890702
v 0.15297688372087323 0.06953600073635792 0.10735713701837785
v 0.17184149043040017 0.06953600073635792 0.10470588944508857
v 0.15372704146419147 0.047851842451674301 0.11269478671219631
v 0.16684727843159167 0.093889342451674324 0.069170224601598732
v 0.14599423604209782 0.09466866063349251 0.05767301714274288
v 0.16485884275162477 0.09466866063349251 0.055021769569453635
v 0.14798267172206475 0.093889342451674324 0.07182147217488799
v 0.14400580036213087 0.0018143424516742889 0.043524562110597555
v 0.15995205235179197 0.0095309975034436455 0.020108141724397916
v 0.14108744564226505 0.0095309975034436455 0.022759389297687165
v 0.16287040707165779 0.0018143424516742889 0.04087331453730831
v 0.15297688372087323 0.06953600073635792 0.10735713701837785
v 0.16976563315145751 0.086172687399904982 0.089935397414509136
v 0.17184149043040017 0.06953600073635792 0.10470588944508857
v 0.1509010264419306 0.086172687399904982 0.092586644987798353
v 0.1509010264419306 0.0095309975034436455 0.092586644987798353
v 0.17184149043040017 0.026167684166990682 0.10470588944508857
v 0.16976563315145751 0.0095309975034436455 0.089935397414509136
v 0.15297688372087323 0.026167684166990682 0.10735713701837785
v 0.15297688372087323 0.026167684166990682 0.10735713701837785
v 0.17259164817371836 0.047851842451674301 0.11004353913890702
v 0.17184149043040017 0.026167684166990682 0.10470588944508857
v 0.15372704146419147 0.047851842451674301 0.11269478671219631
v 0.16684727843159167 0.0018143424516742889 0.069170224601598732
v 0.16287040707165779 0.0018143424516742889 0.04087331453730831
v 0.16485884275162474 0.001035024269856139 0.0550217695694536
v 0.16675879304383315 0.003863011201674297 0.068540618352668281
v 0.16976563315145751 0.0095309975034436455 0.089935397414509136
v 0.16485884275162474 0.0031183726789470478 0.05502176956945358
v 0.16954728097866498 0.01123627510363992 0.088381740975404119
v 0.17184149043040017 0.026167684166990682 0.10470588944508857
v 0.17153076260869468 0.027132629210659103 0.1024949461106229
v 0.17259164817371836 0.047851842451674301 0.11004353913890702
v 0.17224753833243522 0.047851842451674287 0.10759507039306637
v 0.17153076260869468 0.068571055692689467 0.1024949461106229
v 0.17184149043040017 0.06953600073635792 0.10470588944508857
v 0.16954728097866498 0.084467409799708654 0.088381740975404119
v 0.16976563315145751 0.086172687399904982 0.089935397414509136
v 0.16675879304383315 0.091840673701674286 0.068540618352668281
v 0.16684727843159167 0.093889342451674324 0.069170224601598732
v 0.16485884275162474 0.09258531222440157 0.055021769569453607
v 0.16295889245941633 0.003863011201674297 0.041502920786238788
v 0.15995205235179197 0.0095309975034436455 0.020108141724397916
v 0.16017040452458453 0.01123627510363992 0.02166179816350287
v 0.15787619507284931 0.026167684166990682 0.0053376496938184956
v 0.15818692289455483 0.027132629210659103 0.0075485930282842163
v 0.15712603732953109 0.047851842451674301 0
v 0.15747014717081426 0.047851842451674287 0.0024484687458406671
v 0.15818692289455483 0.068571055692689467 0.0075485930282842163
v 0.15787619507284931 0.06953600073635792 0.0053376496938184956
v 0.16017040452458453 0.084467409799708654 0.02166179816350287
v 0.15995205235179197 0.086172687399904982 0.020108141724397934
v 0.16295889245941636 0.091840673701674286 0.041502920786238857
v 0.16287040707165779 0.093889342451674324 0.040873314537308338
v 0.16485884275162477 0.09466866063349251 0.055021769569453635
v 0.14108744564226505 0.086172687399904982 0.022759389297687178
v 0.15787619507284931 0.06953600073635792 0.0053376496938184956
v 0.15995205235179197 0.086172687399904982 0.020108141724397934
v 0.13901158836332242 0.06953600073635792 0.0079888972671077387
v 0.15995205235179197 0.086172687399904982 0.020108141724397934
v 0.14400580036213087 0.093889342451674324 0.043524562110597582
v 0.14108744564226505 0.086172687399904982 0.022759389297687178
v 0.16287040707165779 0.093889342451674324 0.040873314537308338
v 0.14400580036213087 0.0018143424516742889 0.043524562110597555
v 0.14798267172206475 0.0018143424516742889 0.07182147217488799
v 0.14599423604209785 0.001035024269856139 0.057673017142742845
v 0.14108744564226505 0.0095309975034436455 0.022759389297687165
v 0.1509010264419306 0.0095309975034436455 0.092586644987798353
v 0.13901158836332242 0.026167684166990682 0.0079888972671077387
v 0.15297688372087323 0.026167684166990682 0.10735713701837785
v 0.13826143062000418 0.047851842451674301 0.0026512475732892583
v 0.15372704146419147 0.047851842451674301 0.11269478671219631
v 0.13901158836332242 0.06953600073635792 0.0079888972671077387
v 0.15297688372087323 0.06953600073635792 0.10735713701837785
v 0.14108744564226505 0.086172687399904982 0.022759389297687178
v 0.1509010264419306 0.086172687399904982 0.092586644987798353
v 0.14400580036213087 0.093889342451674324 0.043524562110597582
v 0.14798267172206475 0.093889342451674324 0.07182147217488799
v 0.14599423604209782 0.09466866063349251 0.05767301714274288
vn -0.68828684091567993 -0.71896040439605713 0.096732407808303833
vn 0.64783328771591187 -0.72244352102279663 -0.24163481593132019
vn -0.68934088945388794 -0.72244352102279663 -0.053707249462604523
vn 0.68828684091567993 -0.71896040439605713 -0.096732407808303833
vn 0.55748635530471802 -0.35313624143600464 -0.75133466720581055
vn -0.70917993783950806 -0.62407213449478149 -0.32802107930183411
vn 0.5912926197052002 -0.62407213449478149 -0.51079058647155762
vn -0.74298620223999023 -0.35313624143600464 -0.56856513023376465
vn -0.75520282983779907 0 -0.6554911732673645
vn 0.55748635530471802 -0.35313624143600464 -0.75133466720581055
vn 0.54526972770690918 0 -0.83826065063476562
vn -0.74298620223999023 -0.35313624143600464 -0.56856513023376465
vn 0.68828684091567993 0.71896040439605713 -0.096732407808303833
vn -0.68934088945388794 0.72244352102279663 -0.053707249462604523
vn 0.64783328771591187 0.72244352102279663 -0.24163481593132019
vn -0.68828684091567993 0.71896040439605713 0.096732407808303833
vn -0.64783328771591187 -0.72244352102279663 0.24163481593132019
vn 0.68828684091567993 -0.71896040439605713 -0.096732407808303833
vn -0.68828684091567993 -0.71896040439605713 0.096732407808303833
vn 0.68934088945388794 -0.72244352102279663 0.053707249462604523
vn 0.70917993783950806 0.62407213449478149 0.32802107930183411
vn -0.64783328771591187 0.72244352102279663 0.24163481593132019
vn 0.68934088945388794 0.72244352102279663 0.053707249462604523
vn -0.5912926197052002 0.62407213449478149 0.51079058647155762
vn -0.64783328771591187 -0.72244352102279663 0.24163481593132019
vn 0.70917993783950806 -0.62407213449478149 0.32802107930183411
vn 0.68934088945388794 -0.72244352102279663 0.053707249462604523
vn -0.5912926197052002 -0.62407213449478149 0.51079058647155762
vn 0.55748635530471802 0.35313624143600464 -0.75133466720581055
vn -0.75520282983779907 0 -0.6554911732673645
vn 0.54526972770690918 0 -0.83826065063476562
vn -0.74298620223999023 0.35313624143600464 -0.56856513023376465
vn 0.75520282983779907 0 0.6554911732673645
vn -0.55748635530471802 0.35313624143600464 0.75133466720581055
vn 0.74298620223999023 0.35313624143600464 0.56856513023376465
vn -0.54526972770690918 0 0.83826065063476562
vn 0.68934088945388794 0.72244352102279663 0.053707249462604523
vn -0.68828684091567993 0.71896040439605713 0.096732407808303833
vn 0.68828684091567993 0.71896040439605713 -0.096732407808303833
vn -0.64783328771591187 0.72244352102279663 0.24163481593132019
vn -0.68934088945388794 -0.72244352102279663 -0.053707249462604523
vn 0.5912926197052002 -0.62407213449478149 -0.51079058647155762
vn -0.70917993783950806 -0.62407213449478149 -0.32802107930183411
vn 0.64783328771591187 -0.72244352102279663 -0.24163481593132019
vn -0.55748635530471802 0.35313624143600464 0.75133466720581055
vn 0.70917993783950806 0.62407213449478149 0.32802107930183411
vn 0.74298620223999023 0.35313624143600464 0.56856513023376465
vn -0.5912926197052002 0.62407213449478149 0.51079058647155762
vn -0.5912926197052002 -0.62407213449478149 0.51079058647155762
vn 0.74298620223999023 -0.35313624143600464 0.56856513023376465
vn 0.70917993783950806 -0.62407213449478149 0.32802107930183411
vn -0.55748635530471802 -0.35313624143600464 0.75133466720581055
vn -0.55748635530471802 -0.35313624143600464 0.75133466720581055
vn 0.75520282983779907 0 0.6554911732673645
vn 0.74298620223999023 -0.35313624143600464 0.56856513023376465
vn -0.54526972770690918 0 0.83826065063476562
vn 0.68934088945388794 -0.72244352102279663 0.053707249462604523
vn 0.64783328771591187 -0.72244352102279663 -0.24163481593132019
vn 0.68828684091567993 -0.71896040439605713 -0.096732407808303833
vn 0.9902680516242981 0 -0.13917310535907745
vn 0.70917993783950806 -0.62407213449478149 0.32802107930183411
vn 0.9902680516242981 0 -0.13917310535907745
vn 0.9902680516242981 0 -0.13917310535907745
vn 0.74298620223999023 -0.35313624143600464 0.56856513023376465
vn 0.9902680516242981 0 -0.13917310535907745
vn 0.75520282983779907 0 0.6554911732673645
vn 0.9902680516242981 0 -0.13917310535907745
vn 0.9902680516242981 0 -0.13917310535907745
vn 0.74298620223999023 0.35313624143600464 0.56856513023376465
vn 0.9902680516242981 0 -0.13917310535907745
vn 0.70917993783950806 0.62407213449478149 0.32802107930183411
vn 0.9902680516242981 0 -0.13917310535907745
vn 0.68934088945388794 0.72244352102279663 0.053707249462604523
vn 0.9902680516242981 0 -0.13917310535907745
vn 0.9902680516242981 0 -0.13917310535907745
vn 0.5912926197052002 -0.62407213449478149 -0.51079058647155762
vn 0.9902680516242981 0 -0.13917310535907745
vn 0.55748635530471802 -0.35313624143600464 -0.75133466720581055
vn 0.9902680516242981 0 -0.13917310535907745
vn 0.54526972770690918 0 -0.83826065063476562
vn 0.9902680516242981 0 -0.13917310535907745
vn 0.9902680516242981 0 -0.13917310535907745
vn 0.55748635530471802 0.35313624143600464 -0.75133466720581055
vn 0.9902680516242981 0 -0.13917310535907745
vn 0.5912926197052002 0.62407213449478149 -0.51079058647155762
vn 0.9902680516242981 0 -0.13917310535907745
vn 0.64783328771591187 0.72244352102279663 -0.24163481593132019
vn 0.68828684091567993 0.71896040439605713 -0.096732407808303833
vn -0.70917993783950806 0.62407213449478149 -0.32802107930183411
vn 0.55748635530471802 0.35313624143600464 -0.75133466720581055
vn 0.5912926197052002 0.62407213449478149 -0.51079058647155762
vn -0.74298620223999023 0.35313624143600464 -0.56856513023376465
vn 0.5912926197052002 0.62407213449478149 -0.51079058647155762
vn -0.68934088945388794 0.72244352102279663 -0.053707249462604523
vn -0.70917993783950806 0.62407213449478149 -0.32802107930183411
vn 0.64783328771591187 0.72244352102279663 -0.24163481593132019
vn -0.68934088945388794 -0.72244352102279663 -0.053707249462604523
vn -0.64783328771591187 -0.72244352102279663 0.24163481593132019
vn -0.68828684091567993 -0.71896040439605713 0.096732407808303833
vn -0.70917993783950806 -0.62407213449478149 -0.32802107930183411
vn -0.5912926197052002 -0.62407213449478149 0.51079058647155762
vn -0.74298620223999023 -0.35313624143600464 -0.56856513023376465
vn -0.55748635530471802 -0.35313624143600464 0.75133466720581055
vn -0.75520282983779907 0 -0.6554911732673645
vn -0.54526972770690918 0 0.83826065063476562
vn -0.74298620223999023 0.35313624143600464 -0.56856513023376465
vn -0.55748635530471802 0.35313624143600464 0.75133466720581055
vn -0.70917993783950806 0.62407213449478149 -0.32802107930183411
vn -0.5912926197052002 0.62407213449478149 0.51079058647155762
vn -0.68934088945388794 0.72244352102279663 -0.053707249462604523
vn -0.64783328771591187 0.72244352102279663 0.24163481593132019
vn -0.68828684091567993 0.71896040439605713 0.096732407808303833
f 407//407 409//409 408//408
f 408//408 410//410 407//407
f 411//411 413//413 412//412
f 412//412 414//414 411//411
f 415//415 417//417 416//416
f 416//416 418//418 415//415
f 419//419 421//421 420//420
f 420//420 422//422 419//419
f 423//423 425//425 424//424
f 424//424 426//426 423//423
f 427//427 429//429 428//428
f 428//428 430//430 427//427
f 431//431 433//433 432//432
f 432//432 434//434 431//431
f 435//435 437//437 436//436
f 436//436 438//438 435//435
f 439//439 441//441 440//440
f 440//440 442//442 439//439
f 443//443 445//445 444//444
f 444//444 446//446 443//443
f 447//447 449//449 448//448
f 448//448 450//450 447//447
f 451//451 453//453 452//452
f 452//452 454//454 451//451
f 455//455 457//457 456//456
f 456//456 458//458 455//455
f 459//459 461//461 460//460
f 460//460 462//462 459//459
f 463//463 465//465 464//464
f 464//464 466//466 463//463
f 466//466 467//467 463//463
f 464//464 468//468 466//466
f 466//466 469//469 467//467
f 469//469 470//470 467//467
f 469//469 471//471 470//470
f 471//471 472//472 470//470
f 471//471 473//473 472//472
f 473//473 474//474 472//472
f 474//474 475//475 472//472
f 474//474 476//476 475//475
f 476//476 477//477 475//475
f 476//476 478//478 477//477
f 478//478 479//479 477//477
f 478//478 480//480 479//479
f 464//464 482//482 481//481
f 481//481 468//468 464//464
f 482//482 483//483 481//481
f 482//482 484//484 483//483
f 484//484 485//485 483//483
f 484//484 486//486 485//485
f 486//486 487//487 485//485
f 486//486 488//488 487//487
f 486//486 489//489 488//488
f 489//489 490//490 488//488
f 489//489 491//491 490//490
f 491//491 492//492 490//490
f 491//491 493//493 492//492
f 493//493 480//480 492//492
f 493//493 479//479 480//480
f 493//493 494//494 479//479
f 495//495 497//497 496//496
f 496//496 498//498 495//495
f 499//499 501//501 500//500
f 500//500 502//502 499//499
f 503//503 505//505 504//504
f 504//504 506//506 503//503
f 504//504 507//507 506//506
f 507//507 508//508 506//506
f 507//507 509//509 508//508
f 509//509 510//510 508//508
f 509//509 511//511 510//510
f 511//511 512//512 510//510
f 511//511 513//513 512//512
f 513//513 514//514 512//512
f 513//513 515//515 514//514
f 515//515 516//516 514//514
f 515//515 517//517 516//516
f 517//517 518//518 516//516
v 0.18291259277447072 0.075264074261237948 0.024802852966165169
v 0.16503743887098568 0.047851842451674287 0.011681106580802304
v 0.18133234926800021 0.047851842451674287 0.013558836166230661
v 0.16678592164991191 0.07818249405992396 0.024122208006084202
v 0.1756955707154117 0.084467409799708654 0.087517655203809525
v 0.16675879304383315 0.091840673701674286 0.068540618352668281
v 0.1729070827805799 0.091840673701674286 0.067676532581073645
v 0.16954728097866498 0.084467409799708654 0.088381740975404119
v 0.19212292689128746 0.047851842451674287 0.090337785474005228
v 0.17522834332683093 0.07818249405992396 0.084193159589633831
v 0.19054268338481697 0.075264074261237948 0.079093768674070808
v 0.17697682610575716 0.047851842451674287 0.096634261014915679
v 0.17224753833243522 0.047851842451674287 0.10759507039306637
v 0.1776790523454414 0.068571055692689467 0.10163086033902836
v 0.17839582806918194 0.047851842451674287 0.10673098462147178
v 0.17153076260869468 0.068571055692689467 0.1024949461106229
v 0.17522834332683093 0.017521190843424621 0.084193159589633845
v 0.18672763807964385 0.0090850924516742843 0.051948310820117964
v 0.17100713248837143 0.0049578235916742661 0.054157683797858992
v 0.19054268338481697 0.020439610642110684 0.079093768674070836
v 0.1824849541771883 0.056778589520798395 0.13312938973840074
v 0.1885708560672163 0.038925095382550241 0.11170531385771997
v 0.1824849541771883 0.038925095382550165 0.13312938973840074
v 0.1885708560672163 0.056778589520798395 0.11170531385772001
v 0.17334410502382128 0.029222847451674309 0.14690333085032717
v 0.18543775347388652 0.033183342451674293 0.13159215807695995
v 0.17764476525372996 0.033183342451674293 0.13010307321998535
v 0.18324120006342018 0.029222847451674309 0.14879446861868506
v 0.18324120006342018 0.066480837451674324 0.14879446861868506
v 0.18543775347388652 0.033183342451674293 0.13159215807695995
v 0.18324120006342018 0.029222847451674309 0.14879446861868506
v 0.18543775347388652 0.062520342451674316 0.13159215807695995
v 0.17522834332683093 0.017521190843424621 0.084193159589633845
v 0.19212292689128746 0.047851842451674287 0.090337785474005228
v 0.19054268338481697 0.020439610642110684 0.079093768674070836
v 0.17697682610575716 0.047851842451674287 0.096634261014915679
v 0.18549405388210854 0.0083070297157972119 0.089812728748038834
v 0.18029952334337254 0.0031183726789470816 0.0528517234307165
v 0.1819404048579589 0.0003439047016743295 0.064527202077624357
v 0.1810579729174614 0.0049578235916741984 0.058248372566143396
v 0.18391118798189091 0.01070453244850544 0.07855005264703567
v 0.18802180287141843 0.02547509215137795 0.10779859737236153
v 0.18599988637397424 0.026404833021674297 0.093411913945257691
v 0.1885708560672163 0.038925095382550241 0.11170531385771997
v 0.18676440304632042 0.047851842451674308 0.098851732727927702
v 0.1885708560672163 0.056778589520798395 0.11170531385772001
v 0.18599988637397424 0.069298851881674298 0.093411913945257691
v 0.18802180287141843 0.070228592751970687 0.1077985973723616
v 0.18391118798189091 0.084999152454843088 0.078550052647035642
v 0.18549405388210854 0.087396655187551409 0.089812728748038875
v 0.18105797291746137 0.090745861311674336 0.058248372566143361
v 0.1819404048579589 0.095359780201674141 0.064527202077624621
v 0.18029952334337254 0.092585312224401445 0.0528517234307165
v 0.17872747278424531 0.0031183726789471098 0.053072660728490609
v 0.18392200332298131 0.0083070297157972397 0.090033666045812963
v 0.18036835429883169 0.00034390470167435769 0.064748139375398486
v 0.17948592235833416 0.0049578235916742271 0.058469309863917497
v 0.18233913742276364 0.01070453244850547 0.078770989944809772
v 0.18644975231229113 0.025475092151377977 0.10801953467013552
v 0.18442783581484695 0.026404833021674328 0.093632851243031806
v 0.18699880550808906 0.038925095382550269 0.11192625115549407
v 0.18519235248719318 0.047851842451674335 0.099072670025701873
v 0.18699880550808901 0.056778589520798416 0.11192625115549397
v 0.18442783581484695 0.069298851881674325 0.093632851243031806
v 0.18644975231229116 0.070228592751970714 0.10801953467013567
v 0.18233913742276364 0.084999152454843116 0.078770989944809758
v 0.18392200332298134 0.087396655187551422 0.090033666045812991
v 0.17948592235833413 0.09074586131167435 0.058469309863917462
v 0.18036835429883166 0.095359780201674169 0.064748139375398722
v 0.17872747278424528 0.092585312224401459 0.053072660728490526
v 0.16910718219616308 0.091840673701674286 0.040638835014644353
v 0.16017040452458453 0.084467409799708654 0.02166179816350287
v 0.16631869426133125 0.084467409799708654 0.020797712391908307
v 0.16295889245941636 0.091840673701674286 0.041502920786238857
v 0.19054268338481697 0.020439610642110684 0.079093768674070836
v 0.18291259277447072 0.020439610642110684 0.024802852966165169
v 0.18672763807964385 0.0090850924516742843 0.051948310820117964
v 0.19212292689128746 0.047851842451674287 0.090337785474005228
v 0.18133234926800021 0.047851842451674287 0.013558836166230661
v 0.19054268338481697 0.075264074261237948 0.079093768674070808
v 0.18291259277447072 0.075264074261237948 0.024802852966165169
v 0.18672763807964385 0.086618592451674317 0.051948310820117964
v 0.18291259277447072 0.075264074261237948 0.024802852966165169
v 0.17100713248837143 0.090745861311674364 0.054157683797858978
v 0.16678592164991191 0.07818249405992396 0.024122208006084202
v 0.18672763807964385 0.086618592451674317 0.051948310820117964
v 0.1776790523454414 0.068571055692689467 0.10163086033902836
v 0.16954728097866498 0.084467409799708654 0.088381740975404119
v 0.1756955707154117 0.084467409799708654 0.087517655203809525
v 0.17153076260869468 0.068571055692689467 0.1024949461106229
v 0.1729070827805799 0.003863011201674297 0.067676532581073645
v 0.16910718219616308 0.003863011201674297 0.040638835014644346
v 0.17100713248837149 0.0031183726789470478 0.054157683797858992
v 0.17100713248837143 0.0049578235916742661 0.054157683797858992
v 0.1756955707154117 0.01123627510363992 0.087517655203809525
v 0.17522834332683093 0.017521190843424621 0.084193159589633845
v 0.1776790523454414 0.027132629210659103 0.10163086033902836
v 0.17697682610575716 0.047851842451674287 0.096634261014915679
v 0.17839582806918194 0.047851842451674287 0.10673098462147178
v 0.1776790523454414 0.068571055692689467 0.10163086033902836
v 0.17522834332683093 0.07818249405992396 0.084193159589633831
v 0.1756955707154117 0.084467409799708654 0.087517655203809525
v 0.17100713248837143 0.090745861311674364 0.054157683797858978
v 0.1729070827805799 0.091840673701674286 0.067676532581073645
v 0.16631869426133125 0.01123627510363992 0.020797712391908307
v 0.16678592164991191 0.017521190843424621 0.024122208006084202
v 0.16433521263130155 0.027132629210659103 0.0066845072566896896
v 0.16503743887098568 0.047851842451674287 0.011681106580802304
v 0.16361843690756098 0.047851842451674287 0.0015843829742461352
v 0.16678592164991191 0.07818249405992396 0.024122208006084202
v 0.16433521263130155 0.068571055692689467 0.0066845072566896896
v 0.16631869426133125 0.084467409799708654 0.020797712391908307
v 0.16910718219616308 0.091840673701674286 0.040638835014644353
v 0.17100713248837152 0.09258531222440157 0.054157683797859013
v 0.1776790523454414 0.027132629210659103 0.10163086033902836
v 0.17224753833243522 0.047851842451674287 0.10759507039306637
v 0.17839582806918194 0.047851842451674287 0.10673098462147178
v 0.17153076260869468 0.027132629210659103 0.1024949461106229
v 0.17100713248837143 0.0049578235916742661 0.054157683797858992
v 0.18291259277447072 0.020439610642110684 0.024802852966165169
v 0.16678592164991191 0.017521190843424621 0.024122208006084202
v 0.18672763807964385 0.0090850924516742843 0.051948310820117964
v 0.16954728097866498 0.01123627510363992 0.088381740975404119
v 0.1776790523454414 0.027132629210659103 0.10163086033902836
v 0.1756955707154117 0.01123627510363992 0.087517655203809525
v 0.17153076260869468 0.027132629210659103 0.1024949461106229
v 0.16675879304383315 0.003863011201674297 0.068540618352668281
v 0.1756955707154117 0.01123627510363992 0.087517655203809525
v 0.1729070827805799 0.003863011201674297 0.067676532581073645
v 0.16954728097866498 0.01123627510363992 0.088381740975404119
v 0.16910718219616308 0.091840673701674286 0.040638835014644353
v 0.16485884275162474 0.09258531222440157 0.055021769569453607
v 0.16295889245941636 0.091840673701674286 0.041502920786238857
v 0.17100713248837152 0.09258531222440157 0.054157683797859013
v 0.18543775347388652 0.062520342451674316 0.13159215807695995
v 0.1733441050238213 0.066480837451674338 0.14690333085032733
v 0.17764476525372996 0.062520342451674329 0.13010307321998543
v 0.18324120006342018 0.066480837451674324 0.14879446861868506
v 0.16485884275162474 0.0031183726789470478 0.05502176956945358
v 0.1729070827805799 0.003863011201674297 0.067676532581073645
v 0.17100713248837149 0.0031183726789470478 0.054157683797858992
v 0.16675879304383315 0.003863011201674297 0.068540618352668281
v 0.17764476525372996 0.062520342451674329 0.13010307321998543
v 0.18543775347388652 0.033183342451674293 0.13159215807695995
v 0.18543775347388652 0.062520342451674316 0.13159215807695995
v 0.17764476525372996 0.033183342451674293 0.13010307321998535
v 0.16485884275162474 0.0031183726789470478 0.05502176956945358
v 0.16910718219616308 0.003863011201674297 0.040638835014644346
v 0.16295889245941633 0.003863011201674297 0.041502920786238788
v 0.17100713248837149 0.0031183726789470478 0.054157683797858992
v 0.1729070827805799 0.091840673701674286 0.067676532581073645
v 0.16485884275162474 0.09258531222440157 0.055021769569453607
v 0.17100713248837152 0.09258531222440157 0.054157683797859013
v 0.16675879304383315 0.091840673701674286 0.068540618352668281
v 0.18699880550808906 0.038925095382550269 0.11192625115549407
v 0.18091290361806106 0.056778589520798416 0.13335032703617486
v 0.18091290361806106 0.038925095382550193 0.13335032703617486
v 0.18699880550808901 0.056778589520798416 0.11192625115549397
v 0.17764476525372996 0.033183342451674293 0.13010307321998535
v 0.1733441050238213 0.066480837451674338 0.14690333085032733
v 0.17334410502382128 0.029222847451674309 0.14690333085032717
v 0.17764476525372996 0.062520342451674329 0.13010307321998543
v 0.16017040452458453 0.01123627510363992 0.02166179816350287
v 0.16910718219616308 0.003863011201674297 0.040638835014644346
v 0.16631869426133125 0.01123627510363992 0.020797712391908307
v 0.16295889245941633 0.003863011201674297 0.041502920786238788
v 0.15818692289455483 0.068571055692689467 0.0075485930282842163
v 0.16361843690756098 0.047851842451674287 0.0015843829742461352
v 0.16433521263130155 0.068571055692689467 0.0066845072566896896
v 0.15747014717081426 0.047851842451674287 0.0024484687458406671
v 0.16017040452458453 0.084467409799708654 0.02166179816350287
v 0.16433521263130155 0.068571055692689467 0.0066845072566896896
v 0.16631869426133125 0.084467409799708654 0.020797712391908307
v 0.15818692289455483 0.068571055692689467 0.0075485930282842163
v 0.18672763807964385 0.086618592451674317 0.051948310820117964
v 0.17522834332683093 0.07818249405992396 0.084193159589633831
v 0.17100713248837143 0.090745861311674364 0.054157683797858978
v 0.19054268338481697 0.075264074261237948 0.079093768674070808
v 0.16503743887098568 0.047851842451674287 0.011681106580802304
v 0.18291259277447072 0.020439610642110684 0.024802852966165169
v 0.18133234926800021 0.047851842451674287 0.013558836166230661
v 0.16678592164991191 0.017521190843424621 0.024122208006084202
v 0.17334410502382128 0.029222847451674309 0.14690333085032717
v 0.18324120006342018 0.066480837451674324 0.14879446861868506
v 0.18324120006342018 0.029222847451674309 0.14879446861868506
v 0.1733441050238213 0.066480837451674338 0.14690333085032733
v 0.15818692289455483 0.027132629210659103 0.0075485930282842163
v 0.16631869426133125 0.01123627510363992 0.020797712391908307
v 0.16433521263130155 0.027132629210659103 0.0066845072566896896
v 0.16017040452458453 0.01123627510363992 0.02166179816350287
v 0.16361843690756098 0.047851842451674287 0.0015843829742461352
v 0.15818692289455483 0.027132629210659103 0.0075485930282842163
v 0.16433521263130155 0.027132629210659103 0.0066845072566896896
v 0.15747014717081426 0.047851842451674287 0.0024484687458406671
vn 0.15392790734767914 0.68435627222061157 -0.71271497011184692
vn 0.11447654664516449 0 -0.99342596530914307
vn 0.11447654664516449 0 -0.99342596530914307
vn 0.15392790734767914 0.68435627222061157 -0.71271497011184692
vn 0.078152216970920563 0.82744491100311279 0.55608195066452026
vn 0.028134142979979515 0.9793541431427002 0.20018483698368073
vn 0.028134142979979515 0.9793541431427002 0.20018483698368073
vn 0.078152216970920563 0.82744491100311279 0.55608195066452026
vn 0.38386723399162292 0 0.92338830232620239
vn 0.34441587328910828 0.68435627222061157 0.64267736673355103
vn 0.34441587328910828 0.68435627222061157 0.64267736673355103
vn 0.38386723399162292 0 0.92338830232620239
vn 0.13917310535907745 0 0.9902680516242981
vn 0.12297528982162476 0.46821638941764832 0.8750145435333252
vn 0.13917310535907745 0 0.9902680516242981
vn 0.12297528982162476 0.46821638941764832 0.8750145435333252
vn 0.34441587328910828 -0.68435627222061157 0.64267736673355103
vn 0.2491719126701355 -0.96782594919204712 -0.035018827766180038
vn 0.2491719126701355 -0.96782594919204712 -0.035018827766180038
vn 0.34441587328910828 -0.68435627222061157 0.64267736673355103
vn -0.96194106340408325 0 -0.27325701713562012
vn -0.96194106340408325 0 -0.27325701713562012
vn -0.96194106340408325 0 -0.27325701713562012
vn -0.96194106340408325 0 -0.27325701713562012
vn 0.041862756013870239 -0.97480732202529907 -0.21908485889434814
vn 0.041862756013870239 -0.97480732202529907 -0.21908485889434814
vn 0.041862756013870239 -0.97480732202529907 -0.21908485889434814
vn 0.041862756013870239 -0.97480732202529907 -0.21908485889434814
vn 0.99194604158401489 0 0.12666106224060059
vn 0.99194604158401489 0 0.12666106224060059
vn 0.99194604158401489 0 0.12666106224060059
vn 0.99194604158401489 0 0.12666106224060059
vn 0.34441587328910828 -0.68435627222061157 0.64267736673355103
vn 0.38386723399162292 0 0.92338830232620239
vn 0.34441587328910828 -0.68435627222061157 0.64267736673355103
vn 0.38386723399162292 0 0.92338830232620239
vn -0.9902680516242981 0 0.13917310535907745
vn -0.9902680516242981 0 0.13917310535907745
vn -0.9902680516242981 0 0.13917310535907745
vn -0.9902680516242981 0 0.13917310535907745
vn -0.9902680516242981 0 0.13917310535907745
vn -0.9902680516242981 0 0.13917310535907745
vn -0.9902680516242981 0 0.13917310535907745
vn -0.9902680516242981 0 0.13917310535907745
vn -0.9902680516242981 0 0.13917310535907745
vn -0.9902680516242981 0 0.13917310535907745
vn -0.9902680516242981 0 0.13917310535907745
vn -0.9902680516242981 0 0.13917310535907745
vn -0.9902680516242981 0 0.13917310535907745
vn -0.9902680516242981 0 0.13917310535907745
vn -0.9902680516242981 0 0.13917310535907745
vn -0.9902680516242981 0 0.13917310535907745
vn -0.9902680516242981 0 0.13917310535907745
vn 0.9902680516242981 0 -0.13917310535907745
vn 0.9902680516242981 0 -0.13917310535907745
vn 0.9902680516242981 0 -0.13917310535907745
vn 0.9902680516242981 0 -0.13917310535907745
vn 0.9902680516242981 0 -0.13917310535907745
vn 0.9902680516242981 0 -0.13917310535907745
vn 0.9902680516242981 0 -0.13917310535907745
vn 0.9902680516242981 0 -0.13917310535907745
vn 0.9902680516242981 0 -0.13917310535907745
vn 0.9902680516242981 0 -0.13917310535907745
vn 0.9902680516242981 0 -0.13917310535907745
vn 0.9902680516242981 0 -0.13917310535907745
vn 0.9902680516242981 0 -0.13917310535907745
vn 0.9902680516242981 0 -0.13917310535907745
vn 0.9902680516242981 0 -0.13917310535907745
vn 0.9902680516242981 0 -0.13917310535907745
vn 0.9902680516242981 0 -0.13917310535907745
vn -0.028134142979979515 0.9793541431427002 -0.20018483698368073
vn -0.078152216970920563 0.82744491100311279 -0.55608195066452026
vn -0.078152216970920563 0.82744491100311279 -0.55608195066452026
vn -0.028134142979979515 0.9793541431427002 -0.20018483698368073
vn 0.9902680516242981 0 -0.13917310535907745
vn 0.9902680516242981 0 -0.13917310535907745
vn 0.9902680516242981 0 -0.13917310535907745
vn 0.9902680516242981 0 -0.13917310535907745
vn 0.9902680516242981 0 -0.13917310535907745
vn 0.9902680516242981 0 -0.13917310535907745
vn 0.9902680516242981 0 -0.13917310535907745
vn 0.9902680516242981 0 -0.13917310535907745
vn 0.15392790734767914 0.68435627222061157 -0.71271497011184692
vn 0.2491719126701355 0.96782594919204712 -0.035018827766180038
vn 0.15392790734767914 0.68435627222061157 -0.71271497011184692
vn 0.2491719126701355 0.96782594919204712 -0.035018827766180038
vn 0.12297528982162476 0.46821638941764832 0.8750145435333252
vn 0.078152216970920563 0.82744491100311279 0.55608195066452026
vn 0.078152216970920563 0.82744491100311279 0.55608195066452026
vn 0.12297528982162476 0.46821638941764832 0.8750145435333252
vn 0.9902680516242981 0 -0.13917310535907745
vn 0.9902680516242981 0 -0.13917310535907745
vn 0.9902680516242981 0 -0.13917310535907745
vn 0.9902680516242981 0 -0.13917310535907745
vn 0.9902680516242981 0 -0.13917310535907745
vn 0.9902680516242981 0 -0.13917310535907745
vn 0.9902680516242981 0 -0.13917310535907745
vn 0.9902680516242981 0 -0.13917310535907745
vn 0.9902680516242981 0 -0.13917310535907745
vn 0.9902680516242981 0 -0.13917310535907745
vn 0.9902680516242981 0 -0.13917310535907745
vn 0.9902680516242981 0 -0.13917310535907745
vn 0.9902680516242981 0 -0.13917310535907745
vn 0.9902680516242981 0 -0.13917310535907745
vn 0.9902680516242981 0 -0.13917310535907745
vn 0.9902680516242981 0 -0.13917310535907745
vn 0.9902680516242981 0 -0.13917310535907745
vn 0.9902680516242981 0 -0.13917310535907745
vn 0.9902680516242981 0 -0.13917310535907745
vn 0.9902680516242981 0 -0.13917310535907745
vn 0.9902680516242981 0 -0.13917310535907745
vn 0.9902680516242981 0 -0.13917310535907745
vn 0.9902680516242981 0 -0.13917310535907745
vn 0.9902680516242981 0 -0.13917310535907745
vn 0.12297528982162476 -0.46821638941764832 0.8750145435333252
vn 0.13917310535907745 0 0.9902680516242981
vn 0.13917310535907745 0 0.9902680516242981
vn 0.12297528982162476 -0.46821638941764832 0.8750145435333252
vn 0.2491719126701355 -0.96782594919204712 -0.035018827766180038
vn 0.15392790734767914 -0.68435627222061157 -0.71271497011184692
vn 0.15392790734767914 -0.68435627222061157 -0.71271497011184692
vn 0.2491719126701355 -0.96782594919204712 -0.035018827766180038
vn 0.078152216970920563 -0.82744491100311279 0.55608195066452026
vn 0.12297528982162476 -0.46821638941764832 0.8750145435333252
vn 0.078152216970920563 -0.82744491100311279 0.55608195066452026
vn 0.12297528982162476 -0.46821638941764832 0.8750145435333252
vn 0.028134142979979515 -0.9793541431427002 0.20018483698368073
vn 0.078152216970920563 -0.82744491100311279 0.55608195066452026
vn 0.028134142979979515 -0.9793541431427002 0.20018483698368073
vn 0.078152216970920563 -0.82744491100311279 0.55608195066452026
vn -0.028134142979979515 0.9793541431427002 -0.20018483698368073
vn 0 1 0
vn -0.028134142979979515 0.9793541431427002 -0.20018483698368073
vn 0 1 0
vn 0.041862756013870239 0.97480732202529907 -0.21908485889434814
vn 0.041862756013870239 0.97480732202529907 -0.21908485889434814
vn 0.041862756013870239 0.97480732202529907 -0.21908485889434814
vn 0.041862756013870239 0.97480732202529907 -0.21908485889434814
vn 0 -1 0
vn 0.028134142979979515 -0.9793541431427002 0.20018483698368073
vn 0 -1 0
vn 0.028134142979979515 -0.9793541431427002 0.20018483698368073
vn 0.18768446147441864 0 -0.98222935199737549
vn 0.18768446147441864 0 -0.98222935199737549
vn 0.18768446147441864 0 -0.98222935199737549
vn 0.18768446147441864 0 -0.98222935199737549
vn 0 -1 0
vn -0.028134142979979515 -0.9793541431427002 -0.20018483698368073
vn -0.028134142979979515 -0.9793541431427002 -0.20018483698368073
vn 0 -1 0
vn 0.028134142979979515 0.9793541431427002 0.20018483698368073
vn 0 1 0
vn 0 1 0
vn 0.028134142979979515 0.9793541431427002 0.20018483698368073
vn 0.96194106340408325 0 0.27325701713562012
vn 0.96194106340408325 0 0.27325701713562012
vn 0.96194106340408325 0 0.27325701713562012
vn 0.96194106340408325 0 0.27325701713562012
vn -0.96876227855682373 0 -0.24799127876758575
vn -0.96876227855682373 0 -0.24799127876758575
vn -0.96876227855682373 0 -0.24799127876758575
vn -0.96876227855682373 0 -0.24799127876758575
vn -0.078152216970920563 -0.82744491100311279 -0.55608195066452026
vn -0.028134142979979515 -0.9793541431427002 -0.20018483698368073
vn -0.078152216970920563 -0.82744491100311279 -0.55608195066452026
vn -0.028134142979979515 -0.9793541431427002 -0.20018483698368073
vn -0.12297528982162476 0.46821638941764832 -0.8750145435333252
vn -0.13917310535907745 0 -0.9902680516242981
vn -0.12297528982162476 0.46821638941764832 -0.8750145435333252
vn -0.13917310535907745 0 -0.9902680516242981
vn -0.078152216970920563 0.82744491100311279 -0.55608195066452026
vn -0.12297528982162476 0.46821638941764832 -0.8750145435333252
vn -0.078152216970920563 0.82744491100311279 -0.55608195066452026
vn -0.12297528982162476 0.46821638941764832 -0.8750145435333252
vn 0.2491719126701355 0.96782594919204712 -0.035018827766180038
vn 0.34441587328910828 0.68435627222061157 0.64267736673355103
vn 0.2491719126701355 0.96782594919204712 -0.035018827766180038
vn 0.34441587328910828 0.68435627222061157 0.64267736673355103
vn 0.11447654664516449 0 -0.99342596530914307
vn 0.15392790734767914 -0.68435627222061157 -0.71271497011184692
vn 0.11447654664516449 0 -0.99342596530914307
vn 0.15392790734767914 -0.68435627222061157 -0.71271497011184692
vn -0.18768446147441864 0 0.98222935199737549
vn -0.18768446147441864 0 0.98222935199737549
vn -0.18768446147441864 0 0.98222935199737549
vn -0.18768446147441864 0 0.98222935199737549
vn -0.12297528982162476 -0.46821638941764832 -0.8750145435333252
vn -0.078152216970920563 -0.82744491100311279 -0.55608195066452026
vn -0.12297528982162476 -0.46821638941764832 -0.8750145435333252
vn -0.078152216970920563 -0.82744491100311279 -0.55608195066452026
vn -0.13917310535907745 0 -0.9902680516242981
vn -0.12297528982162476 -0.46821638941764832 -0.8750145435333252
vn -0.12297528982162476 -0.46821638941764832 -0.8750145435333252
vn -0.13917310535907745 0 -0.9902680516242981
f 519//519 521//521 520//520
f 520//520 522//522 519//519
f 523//523 525//525 524//524
f 524//524 526//526 523//523
f 527//527 529//529 528//528
f 528//528 530//530 527//527
f 531//531 533//533 532//532
f 532//532 534//534 531//531
f 535//535 537//537 536//536
f 536//536 538//538 535//535
f 539//539 540//540 541//541
f 540//540 539//539 542//542
f 543//543 545//545 544//544
f 544//544 546//546 543//543
f 547//547 549//549 548//548
f 548//548 550//550 547//547
f 551//551 553//553 552//552
f 552//552 554//554 551//551
f 555//555 556//556 557//557
f 556//556 555//555 558//558
f 558//558 555//555 559//559
f 559//559 555//555 560//560
f 559//559 560//560 561//561
f 561//561 560//560 562//562
f 561//561 562//562 563//563
f 563//563 562//562 564//564
f 563//563 564//564 565//565
f 565//565 564//564 566//566
f 565//565 566//566 567//567
f 567//567 566//566 568//568
f 567//567 568//568 569//569
f 569//569 568//568 570//570
f 569//569 570//570 571//571
f 572//572 573//573 574//574
f 573//573 572//572 575//575
f 573//573 575//575 576//576
f 573//573 576//576 577//577
f 577//577 576//576 578//578
f 577//577 578//578 579//579
f 579//579 578//578 580//580
f 579//579 580//580 581//581
f 581//581 580//580 582//582
f 581//581 582//582 583//583
f 583//583 582//582 584//584
f 583//583 584//584 585//585
f 585//585 584//584 586//586
f 585//585 586//586 587//587
f 587//587 586//586 588//588
f 589//589 591//591 590//590
f 590//590 592//592 589//589
f 593//593 595//595 594//594
f 594//594 596//596 593//593
f 594//594 597//597 596//596
f 597//597 598//598 596//596
f 597//597 599//599 598//598
f 599//599 600//600 598//598
f 601//601 603//603 602//602
f 602//602 604//604 601//601
f 605//605 607//607 606//606
f 606//606 608//608 605//605
f 609//609 611//611 610//610
f 610//610 612//612 609//609
f 612//612 613//613 609//609
f 612//612 614//614 613//613
f 614//614 615//615 613//613
f 614//614 616//616 615//615
f 616//616 617//617 615//615
f 616//616 618//618 617//617
f 616//616 619//619 618//618
f 619//619 620//620 618//618
f 619//619 621//621 620//620
f 621//621 622//622 620//620
f 612//612 610//610 623//623
f 623//623 624//624 612//612
f 623//623 625//625 624//624
f 625//625 626//626 624//624
f 625//625 627//627 626//626
f 627//627 628//628 626//626
f 627//627 629//629 628//628
f 629//629 630//630 628//628
f 630//630 621//621 628//628
f 630//630 631//631 621//621
f 631//631 622//622 621//621
f 631//631 632//632 622//622
f 633//633 635//635 634//634
f 634//634 636//636 633//633
f 637//637 639//639 638//638
f 638//638 640//640 637//637
f 641//641 643//643 642//642
f 642//642 644//644 641//641
f 645//645 647//647 646//646
f 646//646 648//648 645//645
f 649//649 651//651 650//650
f 650//650 652//652 649//649
f 653//653 655//655 654//654
f 654//654 656//656 653//653
f 657//657 659//659 658//658
f 658//658 660//660 657//657
f 661//661 663//663 662//662
f 662//662 664//664 661//661
f 665//665 667//667 666//666
f 666//666 668//668 665//665
f 669//669 671//671 670//670
f 670//670 672//672 669//669
f 673//673 674//674 675//675
f 674//674 673//673 676//676
f 677//677 679//679 678//678
f 678//678 680//680 677//677
f 681//681 683//683 682//682
f 682//682 684//684 681//681
f 685//685 687//687 686//686
f 686//686 688//688 685//685
f 689//689 691//691 690//690
f 690//690 692//692 689//689
f 693//693 695//695 694//694
f 694//694 696//696 693//693
f 697//697 699//699 698//698
f 698//698 700//700 697//697
f 701//701 703//703 702//702
f 702//702 704//704 701//701
f 705//705 707//707 706//706
f 706//706 708//708 705//705
f 709//709 711//711 710//710
f 710//710 712//712 709//709
